<?xml version="1.0" encoding="UTF-8"?>
<!-- Do not edit this file with editors other than draw.io -->
<!DOCTYPE svg PUBLIC "-//W3C//DTD SVG 1.1//EN" "http://www.w3.org/Graphics/SVG/1.1/DTD/svg11.dtd">
<svg xmlns="http://www.w3.org/2000/svg" style="background: transparent; background-color: transparent; color-scheme: light dark;" xmlns:xlink="http://www.w3.org/1999/xlink" version="1.1" width="791px" height="632px" viewBox="0 0 791 632" id="ge-svg-uGVn-RBXxVS8CKcFNNei" content="&lt;mxfile host=&quot;app.diagrams.net&quot;&gt;&#xA;  &lt;diagram name=&quot;Seite-1&quot; id=&quot;FDVaHFzFi3zyBeV680GP&quot;&gt;&#xA;    &lt;mxGraphModel dx=&quot;2434&quot; dy=&quot;1072&quot; grid=&quot;1&quot; gridSize=&quot;10&quot; guides=&quot;1&quot; tooltips=&quot;1&quot; connect=&quot;1&quot; arrows=&quot;1&quot; fold=&quot;1&quot; page=&quot;1&quot; pageScale=&quot;1&quot; pageWidth=&quot;827&quot; pageHeight=&quot;1169&quot; math=&quot;0&quot; shadow=&quot;0&quot;&gt;&#xA;      &lt;root&gt;&#xA;        &lt;mxCell id=&quot;0&quot; /&gt;&#xA;        &lt;mxCell id=&quot;1&quot; parent=&quot;0&quot; /&gt;&#xA;        &lt;mxCell id=&quot;KantuKmBGwrRjJTBG4Yk-1&quot; connectable=&quot;0&quot; parent=&quot;1&quot; style=&quot;group&quot; value=&quot;&quot; vertex=&quot;1&quot;&gt;&#xA;          &lt;mxGeometry height=&quot;630&quot; width=&quot;790&quot; x=&quot;-809&quot; y=&quot;20&quot; as=&quot;geometry&quot; /&gt;&#xA;        &lt;/mxCell&gt;&#xA;        &lt;mxCell id=&quot;gB1tynr3NcUta5bx9gjy-1&quot; parent=&quot;KantuKmBGwrRjJTBG4Yk-1&quot; style=&quot;points=[[0,0],[0.25,0],[0.5,0],[0.75,0],[1,0],[1,0.25],[1,0.5],[1,0.75],[1,1],[0.75,1],[0.5,1],[0.25,1],[0,1],[0,0.75],[0,0.5],[0,0.25]];outlineConnect=0;gradientColor=none;html=1;whiteSpace=wrap;fontSize=12;fontStyle=0;container=1;pointerEvents=0;collapsible=0;recursiveResize=0;shape=mxgraph.aws4.group;grIcon=mxgraph.aws4.group_aws_cloud_alt;strokeColor=#232F3E;fillColor=none;verticalAlign=top;align=left;spacingLeft=30;fontColor=#232F3E;dashed=0;&quot; value=&quot;AWS Cloud&quot; vertex=&quot;1&quot;&gt;&#xA;          &lt;mxGeometry height=&quot;630&quot; width=&quot;690.2105263157895&quot; x=&quot;99.78947368421053&quot; as=&quot;geometry&quot; /&gt;&#xA;        &lt;/mxCell&gt;&#xA;        &lt;mxCell id=&quot;gB1tynr3NcUta5bx9gjy-2&quot; parent=&quot;gB1tynr3NcUta5bx9gjy-1&quot; style=&quot;points=[[0,0],[0.25,0],[0.5,0],[0.75,0],[1,0],[1,0.25],[1,0.5],[1,0.75],[1,1],[0.75,1],[0.5,1],[0.25,1],[0,1],[0,0.75],[0,0.5],[0,0.25]];outlineConnect=0;gradientColor=none;html=1;whiteSpace=wrap;fontSize=12;fontStyle=0;container=1;pointerEvents=0;collapsible=0;recursiveResize=0;shape=mxgraph.aws4.group;grIcon=mxgraph.aws4.group_account;strokeColor=#CD2264;fillColor=none;verticalAlign=top;align=left;spacingLeft=30;fontColor=#CD2264;dashed=0;&quot; value=&quot;AWS Account&quot; vertex=&quot;1&quot;&gt;&#xA;          &lt;mxGeometry height=&quot;588&quot; width=&quot;640.3157894736843&quot; x=&quot;24.947368421052634&quot; y=&quot;25.2&quot; as=&quot;geometry&quot; /&gt;&#xA;        &lt;/mxCell&gt;&#xA;        &lt;mxCell id=&quot;gB1tynr3NcUta5bx9gjy-55&quot; parent=&quot;gB1tynr3NcUta5bx9gjy-2&quot; style=&quot;points=[[0,0],[0.25,0],[0.5,0],[0.75,0],[1,0],[1,0.25],[1,0.5],[1,0.75],[1,1],[0.75,1],[0.5,1],[0.25,1],[0,1],[0,0.75],[0,0.5],[0,0.25]];outlineConnect=0;gradientColor=none;html=1;whiteSpace=wrap;fontSize=12;fontStyle=0;container=1;pointerEvents=0;collapsible=0;recursiveResize=0;shape=mxgraph.aws4.group;grIcon=mxgraph.aws4.group_region;strokeColor=#00A4A6;fillColor=none;verticalAlign=top;align=left;spacingLeft=30;fontColor=#147EBA;dashed=1;&quot; value=&quot;eu-central-1&quot; vertex=&quot;1&quot;&gt;&#xA;          &lt;mxGeometry height=&quot;554.4&quot; width=&quot;623.6842105263158&quot; x=&quot;24.947368421052634&quot; y=&quot;25.2&quot; as=&quot;geometry&quot; /&gt;&#xA;        &lt;/mxCell&gt;&#xA;        &lt;mxCell id=&quot;gB1tynr3NcUta5bx9gjy-4&quot; parent=&quot;gB1tynr3NcUta5bx9gjy-55&quot; style=&quot;points=[[0,0],[0.25,0],[0.5,0],[0.75,0],[1,0],[1,0.25],[1,0.5],[1,0.75],[1,1],[0.75,1],[0.5,1],[0.25,1],[0,1],[0,0.75],[0,0.5],[0,0.25]];outlineConnect=0;gradientColor=none;html=1;whiteSpace=wrap;fontSize=12;fontStyle=0;container=1;pointerEvents=0;collapsible=0;recursiveResize=0;shape=mxgraph.aws4.group;grIcon=mxgraph.aws4.group_vpc2;strokeColor=#8C4FFF;fillColor=none;verticalAlign=top;align=left;spacingLeft=30;fontColor=#AAB7B8;dashed=0;&quot; value=&quot;VPC&quot; vertex=&quot;1&quot;&gt;&#xA;          &lt;mxGeometry height=&quot;453.59999999999997&quot; width=&quot;374.2105263157895&quot; x=&quot;37.42105263157895&quot; y=&quot;50.4&quot; as=&quot;geometry&quot; /&gt;&#xA;        &lt;/mxCell&gt;&#xA;        &lt;mxCell id=&quot;gB1tynr3NcUta5bx9gjy-3&quot; parent=&quot;gB1tynr3NcUta5bx9gjy-4&quot; style=&quot;fillColor=none;strokeColor=#147EBA;dashed=1;verticalAlign=top;fontStyle=0;fontColor=#147EBA;whiteSpace=wrap;html=1;&quot; value=&quot;AZ1 eu-central-1a&quot; vertex=&quot;1&quot;&gt;&#xA;          &lt;mxGeometry height=&quot;302.4&quot; width=&quot;166.31578947368422&quot; x=&quot;16.63157894736842&quot; y=&quot;142.79999999999998&quot; as=&quot;geometry&quot; /&gt;&#xA;        &lt;/mxCell&gt;&#xA;        &lt;mxCell id=&quot;gB1tynr3NcUta5bx9gjy-5&quot; parent=&quot;gB1tynr3NcUta5bx9gjy-4&quot; style=&quot;points=[[0,0],[0.25,0],[0.5,0],[0.75,0],[1,0],[1,0.25],[1,0.5],[1,0.75],[1,1],[0.75,1],[0.5,1],[0.25,1],[0,1],[0,0.75],[0,0.5],[0,0.25]];outlineConnect=0;gradientColor=none;html=1;whiteSpace=wrap;fontSize=12;fontStyle=0;container=1;pointerEvents=0;collapsible=0;recursiveResize=0;shape=mxgraph.aws4.group;grIcon=mxgraph.aws4.group_security_group;grStroke=0;strokeColor=#00A4A6;fillColor=#E6F6F7;verticalAlign=top;align=left;spacingLeft=30;fontColor=#147EBA;dashed=0;&quot; value=&quot;Private subnet&quot; vertex=&quot;1&quot;&gt;&#xA;          &lt;mxGeometry height=&quot;151.2&quot; width=&quot;133.05263157894737&quot; x=&quot;33.26315789473684&quot; y=&quot;285.59999999999997&quot; as=&quot;geometry&quot; /&gt;&#xA;        &lt;/mxCell&gt;&#xA;        &lt;mxCell id=&quot;gB1tynr3NcUta5bx9gjy-6&quot; parent=&quot;gB1tynr3NcUta5bx9gjy-4&quot; style=&quot;points=[[0,0],[0.25,0],[0.5,0],[0.75,0],[1,0],[1,0.25],[1,0.5],[1,0.75],[1,1],[0.75,1],[0.5,1],[0.25,1],[0,1],[0,0.75],[0,0.5],[0,0.25]];outlineConnect=0;gradientColor=none;html=1;whiteSpace=wrap;fontSize=12;fontStyle=0;container=1;pointerEvents=0;collapsible=0;recursiveResize=0;shape=mxgraph.aws4.group;grIcon=mxgraph.aws4.group_security_group;grStroke=0;strokeColor=#7AA116;fillColor=#F2F6E8;verticalAlign=top;align=left;spacingLeft=30;fontColor=#248814;dashed=0;&quot; value=&quot;Public subnet&quot; vertex=&quot;1&quot;&gt;&#xA;          &lt;mxGeometry height=&quot;100.8&quot; width=&quot;133.05263157894737&quot; x=&quot;33.26315789473684&quot; y=&quot;168&quot; as=&quot;geometry&quot; /&gt;&#xA;        &lt;/mxCell&gt;&#xA;        &lt;mxCell id=&quot;gB1tynr3NcUta5bx9gjy-12&quot; parent=&quot;gB1tynr3NcUta5bx9gjy-6&quot; style=&quot;sketch=0;outlineConnect=0;fontColor=#232F3E;gradientColor=none;fillColor=#8C4FFF;strokeColor=none;dashed=0;verticalLabelPosition=bottom;verticalAlign=top;align=center;html=1;fontSize=12;fontStyle=0;aspect=fixed;pointerEvents=1;shape=mxgraph.aws4.nat_gateway;&quot; value=&quot;&amp;lt;div&amp;gt;NAT Gateway&amp;lt;/div&amp;gt;&amp;lt;div&amp;gt;&amp;lt;font style=&amp;quot;font-size: 10px; color: rgb(128, 128, 128);&amp;quot;&amp;gt;outbound only&amp;lt;/font&amp;gt;&amp;lt;/div&amp;gt;&quot; vertex=&quot;1&quot;&gt;&#xA;          &lt;mxGeometry height=&quot;43.242105263157896&quot; width=&quot;43.242105263157896&quot; x=&quot;44.90526315789474&quot; y=&quot;23.52&quot; as=&quot;geometry&quot; /&gt;&#xA;        &lt;/mxCell&gt;&#xA;        &lt;mxCell id=&quot;gB1tynr3NcUta5bx9gjy-11&quot; parent=&quot;gB1tynr3NcUta5bx9gjy-4&quot; style=&quot;sketch=0;outlineConnect=0;fontColor=#232F3E;gradientColor=none;fillColor=#8C4FFF;strokeColor=none;dashed=0;verticalLabelPosition=bottom;verticalAlign=top;align=center;html=1;fontSize=12;fontStyle=0;aspect=fixed;pointerEvents=1;shape=mxgraph.aws4.application_load_balancer;&quot; value=&quot;ALB&amp;lt;br&amp;gt;&amp;lt;font style=&amp;quot;font-size: 10px; color: rgb(128, 128, 128);&amp;quot;&amp;gt;port 80 / 443&amp;lt;/font&amp;gt;&quot; vertex=&quot;1&quot;&gt;&#xA;          &lt;mxGeometry height=&quot;49.89473684210527&quot; width=&quot;49.89473684210527&quot; x=&quot;158&quot; y=&quot;33.6&quot; as=&quot;geometry&quot; /&gt;&#xA;        &lt;/mxCell&gt;&#xA;        &lt;mxCell id=&quot;gB1tynr3NcUta5bx9gjy-31&quot; parent=&quot;gB1tynr3NcUta5bx9gjy-4&quot; style=&quot;fillColor=none;strokeColor=#147EBA;dashed=1;verticalAlign=top;fontStyle=0;fontColor=#147EBA;whiteSpace=wrap;html=1;&quot; value=&quot;AZ2 eu-central-1b&quot; vertex=&quot;1&quot;&gt;&#xA;          &lt;mxGeometry height=&quot;302.4&quot; width=&quot;174.63157894736844&quot; x=&quot;191.26315789473685&quot; y=&quot;142.79999999999998&quot; as=&quot;geometry&quot; /&gt;&#xA;        &lt;/mxCell&gt;&#xA;        &lt;mxCell id=&quot;gB1tynr3NcUta5bx9gjy-34&quot; parent=&quot;gB1tynr3NcUta5bx9gjy-4&quot; style=&quot;points=[[0,0],[0.25,0],[0.5,0],[0.75,0],[1,0],[1,0.25],[1,0.5],[1,0.75],[1,1],[0.75,1],[0.5,1],[0.25,1],[0,1],[0,0.75],[0,0.5],[0,0.25]];outlineConnect=0;gradientColor=none;html=1;whiteSpace=wrap;fontSize=12;fontStyle=0;container=1;pointerEvents=0;collapsible=0;recursiveResize=0;shape=mxgraph.aws4.group;grIcon=mxgraph.aws4.group_security_group;grStroke=0;strokeColor=#7AA116;fillColor=#F2F6E8;verticalAlign=top;align=left;spacingLeft=30;fontColor=#248814;dashed=0;&quot; value=&quot;Public subnet&quot; vertex=&quot;1&quot;&gt;&#xA;          &lt;mxGeometry height=&quot;100.8&quot; width=&quot;133.05263157894737&quot; x=&quot;212.05263157894737&quot; y=&quot;168&quot; as=&quot;geometry&quot; /&gt;&#xA;        &lt;/mxCell&gt;&#xA;        &lt;mxCell id=&quot;gB1tynr3NcUta5bx9gjy-35&quot; parent=&quot;gB1tynr3NcUta5bx9gjy-34&quot; style=&quot;sketch=0;outlineConnect=0;fontColor=#232F3E;gradientColor=none;fillColor=#8C4FFF;strokeColor=none;dashed=0;verticalLabelPosition=bottom;verticalAlign=top;align=center;html=1;fontSize=12;fontStyle=0;aspect=fixed;pointerEvents=1;shape=mxgraph.aws4.nat_gateway;&quot; value=&quot;&amp;lt;div&amp;gt;NAT Gateway&amp;lt;/div&amp;gt;&amp;lt;div&amp;gt;&amp;lt;font style=&amp;quot;font-size: 10px; color: rgb(128, 128, 128);&amp;quot;&amp;gt;outbound only&amp;lt;/font&amp;gt;&amp;lt;/div&amp;gt;&quot; vertex=&quot;1&quot;&gt;&#xA;          &lt;mxGeometry height=&quot;43.242105263157896&quot; width=&quot;43.242105263157896&quot; x=&quot;44.90526315789474&quot; y=&quot;23.52&quot; as=&quot;geometry&quot; /&gt;&#xA;        &lt;/mxCell&gt;&#xA;        &lt;mxCell id=&quot;gB1tynr3NcUta5bx9gjy-47&quot; parent=&quot;gB1tynr3NcUta5bx9gjy-4&quot; style=&quot;points=[[0,0],[0.25,0],[0.5,0],[0.75,0],[1,0],[1,0.25],[1,0.5],[1,0.75],[1,1],[0.75,1],[0.5,1],[0.25,1],[0,1],[0,0.75],[0,0.5],[0,0.25]];outlineConnect=0;gradientColor=none;html=1;whiteSpace=wrap;fontSize=12;fontStyle=0;container=1;pointerEvents=0;collapsible=0;recursiveResize=0;shape=mxgraph.aws4.group;grIcon=mxgraph.aws4.group_security_group;grStroke=0;strokeColor=#00A4A6;fillColor=#E6F6F7;verticalAlign=top;align=left;spacingLeft=30;fontColor=#147EBA;dashed=0;&quot; value=&quot;Private subnet&quot; vertex=&quot;1&quot;&gt;&#xA;          &lt;mxGeometry height=&quot;151.2&quot; width=&quot;133.05263157894737&quot; x=&quot;212.05263157894737&quot; y=&quot;285.59999999999997&quot; as=&quot;geometry&quot; /&gt;&#xA;        &lt;/mxCell&gt;&#xA;        &lt;mxCell id=&quot;gB1tynr3NcUta5bx9gjy-54&quot; parent=&quot;gB1tynr3NcUta5bx9gjy-47&quot; style=&quot;sketch=0;points=[[0,0,0],[0.25,0,0],[0.5,0,0],[0.75,0,0],[1,0,0],[0,1,0],[0.25,1,0],[0.5,1,0],[0.75,1,0],[1,1,0],[0,0.25,0],[0,0.5,0],[0,0.75,0],[1,0.25,0],[1,0.5,0],[1,0.75,0]];outlineConnect=0;fontColor=#232F3E;fillColor=#ED7100;strokeColor=#ffffff;dashed=0;verticalLabelPosition=bottom;verticalAlign=top;align=center;html=1;fontSize=12;fontStyle=0;aspect=fixed;shape=mxgraph.aws4.resourceIcon;resIcon=mxgraph.aws4.fargate;&quot; value=&quot;Fargate&amp;lt;br&amp;gt;Task&quot; vertex=&quot;1&quot;&gt;&#xA;          &lt;mxGeometry height=&quot;37.74536842105263&quot; width=&quot;37.74536842105263&quot; x=&quot;47.65778947368421&quot; y=&quot;56.53200000000001&quot; as=&quot;geometry&quot; /&gt;&#xA;        &lt;/mxCell&gt;&#xA;        &lt;mxCell id=&quot;gB1tynr3NcUta5bx9gjy-42&quot; parent=&quot;gB1tynr3NcUta5bx9gjy-4&quot; style=&quot;points=[[0,0],[0.25,0],[0.5,0],[0.75,0],[1,0],[1,0.25],[1,0.5],[1,0.75],[1,1],[0.75,1],[0.5,1],[0.25,1],[0,1],[0,0.75],[0,0.5],[0,0.25]];outlineConnect=0;gradientColor=none;html=1;whiteSpace=wrap;fontSize=12;fontStyle=0;container=1;pointerEvents=0;collapsible=0;recursiveResize=0;shape=mxgraph.aws4.group;grIcon=mxgraph.aws4.group_ec2_instance_contents;strokeColor=#D86613;fillColor=none;verticalAlign=top;align=left;spacingLeft=30;fontColor=#D86613;dashed=0;&quot; value=&quot;ECS Cluster&quot; vertex=&quot;1&quot;&gt;&#xA;          &lt;mxGeometry height=&quot;105&quot; width=&quot;291.0526315789474&quot; x=&quot;41.578947368421055&quot; y=&quot;315&quot; as=&quot;geometry&quot; /&gt;&#xA;        &lt;/mxCell&gt;&#xA;        &lt;mxCell id=&quot;gB1tynr3NcUta5bx9gjy-45&quot; parent=&quot;gB1tynr3NcUta5bx9gjy-42&quot; style=&quot;sketch=0;points=[[0,0,0],[0.25,0,0],[0.5,0,0],[0.75,0,0],[1,0,0],[0,1,0],[0.25,1,0],[0.5,1,0],[0.75,1,0],[1,1,0],[0,0.25,0],[0,0.5,0],[0,0.75,0],[1,0.25,0],[1,0.5,0],[1,0.75,0]];outlineConnect=0;fontColor=#232F3E;fillColor=#ED7100;strokeColor=#ffffff;dashed=0;verticalLabelPosition=bottom;verticalAlign=top;align=center;html=1;fontSize=12;fontStyle=0;aspect=fixed;shape=mxgraph.aws4.resourceIcon;resIcon=mxgraph.aws4.ecs;&quot; value=&quot;&quot; vertex=&quot;1&quot;&gt;&#xA;          &lt;mxGeometry height=&quot;20.789473684210527&quot; width=&quot;20.789473684210527&quot; as=&quot;geometry&quot; /&gt;&#xA;        &lt;/mxCell&gt;&#xA;        &lt;mxCell id=&quot;gB1tynr3NcUta5bx9gjy-10&quot; parent=&quot;gB1tynr3NcUta5bx9gjy-42&quot; style=&quot;sketch=0;points=[[0,0,0],[0.25,0,0],[0.5,0,0],[0.75,0,0],[1,0,0],[0,1,0],[0.25,1,0],[0.5,1,0],[0.75,1,0],[1,1,0],[0,0.25,0],[0,0.5,0],[0,0.75,0],[1,0.25,0],[1,0.5,0],[1,0.75,0]];outlineConnect=0;fontColor=#232F3E;fillColor=#ED7100;strokeColor=#ffffff;dashed=0;verticalLabelPosition=bottom;verticalAlign=top;align=center;html=1;fontSize=12;fontStyle=0;aspect=fixed;shape=mxgraph.aws4.resourceIcon;resIcon=mxgraph.aws4.fargate;&quot; value=&quot;Fargate&amp;lt;br&amp;gt;Task&quot; vertex=&quot;1&quot;&gt;&#xA;          &lt;mxGeometry height=&quot;37.74536842105263&quot; width=&quot;37.74536842105263&quot; x=&quot;39.342000000000006&quot; y=&quot;33.2724&quot; as=&quot;geometry&quot; /&gt;&#xA;        &lt;/mxCell&gt;&#xA;        &lt;mxCell id=&quot;gB1tynr3NcUta5bx9gjy-7&quot; parent=&quot;gB1tynr3NcUta5bx9gjy-55&quot; style=&quot;sketch=0;points=[[0,0,0],[0.25,0,0],[0.5,0,0],[0.75,0,0],[1,0,0],[0,1,0],[0.25,1,0],[0.5,1,0],[0.75,1,0],[1,1,0],[0,0.25,0],[0,0.5,0],[0,0.75,0],[1,0.25,0],[1,0.5,0],[1,0.75,0]];outlineConnect=0;fontColor=#232F3E;fillColor=#ED7100;strokeColor=#ffffff;dashed=0;verticalLabelPosition=bottom;verticalAlign=top;align=center;html=1;fontSize=12;fontStyle=0;aspect=fixed;shape=mxgraph.aws4.resourceIcon;resIcon=mxgraph.aws4.ecr;&quot; value=&quot;ECR&quot; vertex=&quot;1&quot;&gt;&#xA;          &lt;mxGeometry height=&quot;49.89473684210527&quot; width=&quot;49.89473684210527&quot; x=&quot;494.7894736842105&quot; y=&quot;92.39999999999999&quot; as=&quot;geometry&quot; /&gt;&#xA;        &lt;/mxCell&gt;&#xA;        &lt;mxCell id=&quot;gB1tynr3NcUta5bx9gjy-8&quot; parent=&quot;gB1tynr3NcUta5bx9gjy-55&quot; style=&quot;sketch=0;points=[[0,0,0],[0.25,0,0],[0.5,0,0],[0.75,0,0],[1,0,0],[0,1,0],[0.25,1,0],[0.5,1,0],[0.75,1,0],[1,1,0],[0,0.25,0],[0,0.5,0],[0,0.75,0],[1,0.25,0],[1,0.5,0],[1,0.75,0]];outlineConnect=0;fontColor=#232F3E;fillColor=#DD344C;strokeColor=#ffffff;dashed=0;verticalLabelPosition=bottom;verticalAlign=top;align=center;html=1;fontSize=12;fontStyle=0;aspect=fixed;shape=mxgraph.aws4.resourceIcon;resIcon=mxgraph.aws4.secrets_manager;&quot; value=&quot;Secrets&amp;lt;br&amp;gt;Manager&quot; vertex=&quot;1&quot;&gt;&#xA;          &lt;mxGeometry height=&quot;49.89473684210527&quot; width=&quot;49.89473684210527&quot; x=&quot;494.7894736842105&quot; y=&quot;218.4&quot; as=&quot;geometry&quot; /&gt;&#xA;        &lt;/mxCell&gt;&#xA;        &lt;mxCell id=&quot;gB1tynr3NcUta5bx9gjy-9&quot; parent=&quot;gB1tynr3NcUta5bx9gjy-55&quot; style=&quot;sketch=0;outlineConnect=0;fontColor=#232F3E;gradientColor=none;fillColor=#E7157B;strokeColor=none;dashed=0;verticalLabelPosition=bottom;verticalAlign=top;align=center;html=1;fontSize=12;fontStyle=0;aspect=fixed;pointerEvents=1;shape=mxgraph.aws4.cloudwatch_logs;&quot; value=&quot;CloudWatch&amp;lt;br&amp;gt;Logs&quot; vertex=&quot;1&quot;&gt;&#xA;          &lt;mxGeometry height=&quot;37.096736842105265&quot; width=&quot;49.89473684210527&quot; x=&quot;494.7894736842105&quot; y=&quot;361.2&quot; as=&quot;geometry&quot; /&gt;&#xA;        &lt;/mxCell&gt;&#xA;        &lt;mxCell id=&quot;gB1tynr3NcUta5bx9gjy-21&quot; parent=&quot;gB1tynr3NcUta5bx9gjy-55&quot; style=&quot;fillColor=none;strokeColor=#d79b00;dashed=1;verticalAlign=top;fontStyle=0;whiteSpace=wrap;html=1;dashPattern=1 4;strokeWidth=2;&quot; value=&quot;&amp;lt;b&amp;gt;&amp;lt;span style=&amp;quot;color: rgb(255, 181, 112);&amp;quot;&amp;gt;AWS managed&amp;lt;/span&amp;gt;&amp;lt;/b&amp;gt;&quot; vertex=&quot;1&quot;&gt;&#xA;          &lt;mxGeometry height=&quot;453.59999999999997&quot; width=&quot;133.05263157894737&quot; x=&quot;453.2105263157895&quot; y=&quot;50.4&quot; as=&quot;geometry&quot; /&gt;&#xA;        &lt;/mxCell&gt;&#xA;        &lt;mxCell id=&quot;gB1tynr3NcUta5bx9gjy-13&quot; parent=&quot;KantuKmBGwrRjJTBG4Yk-1&quot; style=&quot;rounded=1;whiteSpace=wrap;html=1;&quot; value=&quot;Internet&amp;lt;br&amp;gt;&amp;lt;font style=&amp;quot;font-size: 10px; color: rgb(153, 153, 153);&amp;quot;&amp;gt;HTTPS&amp;lt;/font&amp;gt;&quot; vertex=&quot;1&quot;&gt;&#xA;          &lt;mxGeometry height=&quot;42&quot; width=&quot;83.15789473684211&quot; y=&quot;151.2&quot; as=&quot;geometry&quot; /&gt;&#xA;        &lt;/mxCell&gt;&#xA;      &lt;/root&gt;&#xA;    &lt;/mxGraphModel&gt;&#xA;  &lt;/diagram&gt;&#xA;&lt;/mxfile&gt;&#xA;"><style type="text/css">@supports (color: light-dark(#000, #fff)) { #ge-svg-uGVn-RBXxVS8CKcFNNei { --ge-adaptive-bg: light-dark(#ffffff, var(--ge-dark-color, #121212)); } }</style><defs/><g><g data-cell-id="0"><g data-cell-id="1"><g data-cell-id="KantuKmBGwrRjJTBG4Yk-1"><g transform="translate(0.5,0.5)"/><g data-cell-id="gB1tynr3NcUta5bx9gjy-1"><g transform="translate(0.5,0.5)"><path d="M 99.79 0 L 790 0 L 790 630 L 99.79 630 Z" fill="none" stroke="#232f3e" style="stroke: light-dark(rgb(35, 47, 62), rgb(189, 199, 212));" stroke-miterlimit="10" pointer-events="none"/><path d="M 105.88 7.18 C 105.8 7.18 105.72 7.19 105.64 7.19 C 105.29 7.19 104.94 7.23 104.6 7.32 C 104.32 7.39 104.04 7.49 103.77 7.62 C 103.69 7.65 103.63 7.7 103.58 7.76 C 103.54 7.83 103.53 7.91 103.53 7.99 L 103.53 8.32 C 103.53 8.46 103.57 8.53 103.67 8.53 L 103.78 8.53 L 104.01 8.44 C 104.24 8.35 104.48 8.27 104.73 8.21 C 104.96 8.16 105.2 8.13 105.44 8.13 C 105.83 8.09 106.22 8.2 106.52 8.44 C 106.76 8.74 106.88 9.12 106.84 9.5 L 106.84 9.99 C 106.57 9.93 106.33 9.88 106.08 9.84 C 105.84 9.81 105.6 9.79 105.36 9.79 C 104.77 9.76 104.19 9.94 103.73 10.31 C 103.33 10.65 103.11 11.15 103.13 11.68 C 103.1 12.15 103.27 12.62 103.61 12.96 C 103.97 13.29 104.45 13.46 104.94 13.44 C 105.7 13.45 106.42 13.11 106.9 12.51 C 106.97 12.66 107.03 12.79 107.1 12.91 C 107.17 13.02 107.25 13.12 107.34 13.21 C 107.39 13.27 107.46 13.31 107.54 13.31 C 107.6 13.31 107.66 13.29 107.71 13.25 L 108.13 12.97 C 108.2 12.93 108.25 12.86 108.26 12.77 C 108.26 12.72 108.24 12.67 108.21 12.62 C 108.13 12.47 108.05 12.31 108 12.14 C 107.94 11.95 107.91 11.75 107.92 11.55 L 107.93 9.37 C 107.99 8.77 107.79 8.18 107.38 7.74 C 106.96 7.39 106.43 7.19 105.88 7.18 Z M 119.68 7.19 C 119.57 7.19 119.47 7.19 119.36 7.2 C 119.08 7.2 118.79 7.24 118.52 7.31 C 118.26 7.38 118.02 7.5 117.8 7.66 C 117.61 7.81 117.45 7.99 117.33 8.21 C 117.2 8.43 117.14 8.67 117.15 8.92 C 117.15 9.27 117.27 9.61 117.48 9.89 C 117.76 10.22 118.13 10.46 118.55 10.56 L 119.51 10.87 C 119.76 10.93 119.99 11.05 120.18 11.22 C 120.3 11.35 120.37 11.51 120.36 11.69 C 120.37 11.94 120.24 12.18 120.02 12.31 C 119.72 12.48 119.39 12.56 119.05 12.54 C 118.78 12.54 118.51 12.51 118.25 12.45 C 118.01 12.4 117.77 12.32 117.54 12.22 L 117.37 12.15 C 117.33 12.14 117.29 12.14 117.25 12.15 C 117.15 12.15 117.1 12.22 117.1 12.36 L 117.1 12.69 C 117.1 12.76 117.11 12.82 117.14 12.89 C 117.19 12.97 117.26 13.03 117.35 13.07 C 117.59 13.19 117.85 13.28 118.11 13.34 C 118.45 13.41 118.79 13.45 119.14 13.45 L 119.12 13.46 C 119.45 13.45 119.77 13.4 120.08 13.3 C 120.34 13.22 120.58 13.09 120.8 12.92 C 121 12.77 121.17 12.57 121.28 12.34 C 121.4 12.1 121.46 11.83 121.45 11.56 C 121.46 11.23 121.35 10.9 121.15 10.63 C 120.88 10.32 120.52 10.09 120.12 9.99 L 119.18 9.69 C 118.92 9.61 118.67 9.49 118.46 9.32 C 118.33 9.2 118.26 9.03 118.26 8.85 C 118.25 8.61 118.37 8.38 118.58 8.25 C 118.85 8.11 119.15 8.05 119.46 8.06 C 119.9 8.06 120.34 8.14 120.75 8.32 C 120.83 8.37 120.91 8.4 121 8.41 C 121.1 8.41 121.15 8.34 121.15 8.19 L 121.15 7.88 C 121.16 7.8 121.14 7.72 121.1 7.66 C 121.04 7.59 120.97 7.54 120.9 7.49 L 120.62 7.38 L 120.24 7.27 L 119.8 7.2 C 119.76 7.2 119.72 7.19 119.68 7.19 Z M 115.81 7.36 C 115.73 7.35 115.65 7.38 115.58 7.42 C 115.51 7.5 115.47 7.59 115.45 7.69 L 114.3 12.14 L 113.26 7.71 C 113.24 7.61 113.2 7.52 113.13 7.44 C 113.05 7.39 112.96 7.37 112.86 7.38 L 112.33 7.38 C 112.23 7.37 112.14 7.39 112.06 7.44 C 111.99 7.51 111.94 7.61 111.93 7.71 L 110.88 12.14 L 109.76 7.7 C 109.74 7.6 109.69 7.51 109.63 7.44 C 109.55 7.39 109.46 7.36 109.37 7.37 L 108.71 7.37 C 108.6 7.37 108.55 7.43 108.55 7.54 C 108.56 7.63 108.58 7.72 108.61 7.81 L 110.17 12.95 C 110.19 13.05 110.24 13.14 110.31 13.21 C 110.39 13.26 110.48 13.29 110.57 13.28 L 111.15 13.26 C 111.25 13.27 111.34 13.25 111.42 13.19 C 111.49 13.12 111.53 13.03 111.55 12.93 L 112.58 8.64 L 113.61 12.93 C 113.62 13.03 113.67 13.12 113.74 13.19 C 113.82 13.25 113.91 13.27 114 13.26 L 114.57 13.26 C 114.67 13.27 114.76 13.25 114.83 13.2 C 114.9 13.13 114.95 13.03 114.97 12.94 L 116.58 7.79 C 116.63 7.72 116.63 7.63 116.63 7.63 C 116.63 7.59 116.63 7.56 116.63 7.52 C 116.63 7.48 116.61 7.43 116.58 7.4 C 116.55 7.37 116.51 7.35 116.46 7.36 L 115.84 7.36 C 115.83 7.36 115.82 7.36 115.81 7.36 Z M 105.44 10.62 C 105.49 10.62 105.54 10.62 105.59 10.62 L 106.22 10.62 C 106.43 10.64 106.64 10.67 106.85 10.71 L 106.85 11.01 C 106.86 11.21 106.84 11.4 106.79 11.59 C 106.75 11.75 106.67 11.9 106.56 12.01 C 106.39 12.21 106.18 12.36 105.93 12.44 C 105.7 12.52 105.46 12.56 105.22 12.56 C 104.97 12.6 104.72 12.53 104.52 12.37 C 104.34 12.18 104.25 11.92 104.28 11.66 C 104.26 11.36 104.38 11.08 104.6 10.89 C 104.85 10.72 105.14 10.62 105.44 10.62 Z M 120.83 14.72 C 120.13 14.73 119.3 14.89 118.67 15.33 C 118.48 15.46 118.51 15.63 118.73 15.63 C 119.43 15.54 121 15.35 121.29 15.71 C 121.57 16.06 120.98 17.54 120.73 18.21 C 120.65 18.41 120.82 18.49 121 18.34 C 122.18 17.36 122.51 15.3 122.25 15 C 122.11 14.85 121.53 14.71 120.83 14.72 Z M 102.44 15.1 C 102.29 15.12 102.21 15.3 102.37 15.44 C 105.08 17.89 108.61 19.23 112.27 19.21 C 115.16 19.22 117.98 18.36 120.38 16.74 C 120.74 16.47 120.42 16.07 120.05 16.23 C 117.66 17.24 115.09 17.76 112.5 17.77 C 109.02 17.78 105.61 16.87 102.6 15.14 C 102.54 15.11 102.48 15.1 102.44 15.1 Z M 99.79 0 L 124.79 0 L 124.79 25 L 99.79 25 Z" fill="#232f3e" style="fill: light-dark(rgb(35, 47, 62), rgb(189, 199, 212));" stroke="none" pointer-events="all"/></g><g><g><switch><foreignObject style="overflow: visible; text-align: left;" pointer-events="none" width="100%" height="100%" requiredFeatures="http://www.w3.org/TR/SVG11/feature#Extensibility"><div xmlns="http://www.w3.org/1999/xhtml" style="display: flex; align-items: unsafe flex-start; justify-content: unsafe flex-start; width: 658px; height: 1px; padding-top: 7px; margin-left: 132px;"><div style="box-sizing: border-box; font-size: 0; text-align: left; color: #232F3E; "><div style="display: inline-block; font-size: 12px; font-family: Helvetica; color: light-dark(#232F3E, #bdc7d4); line-height: 1.2; pointer-events: all; white-space: normal; word-wrap: normal; ">AWS Cloud</div></div></div></foreignObject><text x="132" y="19" fill="#232F3E" font-family="Helvetica" font-size="12px">AWS Cloud</text></switch></g></g><g data-cell-id="gB1tynr3NcUta5bx9gjy-2"><g transform="translate(0.5,0.5)"><path d="M 124.74 25.2 L 765.05 25.2 L 765.05 613.2 L 124.74 613.2 Z" fill="none" stroke="#cd2264" style="stroke: light-dark(rgb(205, 34, 100), rgb(255, 137, 194));" stroke-miterlimit="10" pointer-events="none"/><path d="M 124.74 25.2 L 124.74 50.2 L 149.74 50.2 L 149.74 25.2 L 124.74 25.2 Z M 128.83 28.89 L 145.64 28.89 C 145.75 28.89 145.85 28.93 145.93 29.01 C 146 29.08 146.04 29.19 146.04 29.29 L 146.04 46.11 C 146.04 46.21 146 46.32 145.93 46.39 C 145.85 46.47 145.75 46.51 145.64 46.51 L 128.83 46.51 C 128.72 46.51 128.62 46.47 128.55 46.39 C 128.47 46.32 128.43 46.21 128.43 46.11 L 128.43 29.29 C 128.43 29.19 128.47 29.08 128.55 29.01 C 128.62 28.93 128.72 28.89 128.83 28.89 Z M 129.23 29.69 L 129.23 45.71 L 145.24 45.71 L 145.24 29.69 L 129.23 29.69 Z M 141.24 30.51 C 141.39 30.51 141.53 30.58 141.6 30.72 L 144.2 35.92 C 144.26 36.04 144.26 36.19 144.18 36.31 C 144.11 36.43 143.98 36.5 143.84 36.5 L 138.64 36.5 L 138.64 36.5 C 138.5 36.5 138.37 36.43 138.3 36.31 C 138.22 36.19 138.22 36.04 138.28 35.92 L 140.88 30.72 C 140.95 30.58 141.1 30.51 141.24 30.51 Z M 141.24 31.79 L 139.29 35.7 L 143.2 35.7 L 141.24 31.79 Z M 130.83 34.5 L 136.04 34.5 C 136.14 34.5 136.24 34.54 136.32 34.61 C 136.39 34.69 136.44 34.79 136.44 34.9 L 136.44 40.1 C 136.44 40.21 136.39 40.31 136.32 40.39 C 136.24 40.46 136.14 40.5 136.04 40.5 L 130.83 40.5 C 130.73 40.5 130.62 40.46 130.55 40.39 C 130.47 40.31 130.43 40.21 130.43 40.1 L 130.43 34.9 C 130.43 34.79 130.47 34.69 130.55 34.61 C 130.62 34.54 130.73 34.5 130.83 34.5 Z M 131.23 35.3 L 131.23 39.7 L 135.64 39.7 L 135.64 35.3 L 131.23 35.3 Z M 140.44 38.5 C 142.21 38.5 143.64 39.94 143.64 41.7 C 143.64 43.47 142.21 44.9 140.44 44.91 C 138.67 44.9 137.24 43.47 137.24 41.7 C 137.24 39.94 138.67 38.5 140.44 38.5 Z M 140.44 39.3 C 139.11 39.3 138.04 40.38 138.04 41.7 C 138.04 43.03 139.11 44.1 140.44 44.11 C 141.77 44.1 142.84 43.03 142.84 41.7 C 142.84 40.38 141.77 39.3 140.44 39.3 Z" fill="#cd2264" style="fill: light-dark(rgb(205, 34, 100), rgb(255, 137, 194));" stroke="none" pointer-events="all"/></g><g><g><switch><foreignObject style="overflow: visible; text-align: left;" pointer-events="none" width="100%" height="100%" requiredFeatures="http://www.w3.org/TR/SVG11/feature#Extensibility"><div xmlns="http://www.w3.org/1999/xhtml" style="display: flex; align-items: unsafe flex-start; justify-content: unsafe flex-start; width: 608px; height: 1px; padding-top: 32px; margin-left: 157px;"><div style="box-sizing: border-box; font-size: 0; text-align: left; color: #CD2264; "><div style="display: inline-block; font-size: 12px; font-family: Helvetica; color: light-dark(#CD2264, #ff89c2); line-height: 1.2; pointer-events: all; white-space: normal; word-wrap: normal; ">AWS Account</div></div></div></foreignObject><text x="157" y="44" fill="#CD2264" font-family="Helvetica" font-size="12px">AWS Account</text></switch></g></g><g data-cell-id="gB1tynr3NcUta5bx9gjy-55"><g transform="translate(0.5,0.5)"><path d="M 149.68 50.4 L 773.37 50.4 L 773.37 604.8 L 149.68 604.8 Z" fill="none" stroke="#00a4a6" style="stroke: light-dark(rgb(0, 164, 166), rgb(15, 156, 158));" stroke-miterlimit="10" stroke-dasharray="3 3" pointer-events="none"/><path d="M 157.74 53.87 C 157.16 53.87 156.68 54.35 156.68 54.93 C 156.68 55.39 156.98 55.79 157.4 55.93 L 157.4 71.22 L 155.64 71.22 L 155.64 71.97 L 159.84 71.97 L 159.84 71.22 L 158.15 71.22 L 158.15 63.15 L 169.53 63.15 L 166.87 59.99 L 169.51 56.76 L 158.15 56.76 L 158.15 55.91 C 158.53 55.75 158.8 55.37 158.8 54.93 C 158.8 54.35 158.32 53.87 157.74 53.87 Z M 157.74 54.62 C 157.92 54.62 158.05 54.75 158.05 54.93 C 158.05 55.11 157.92 55.24 157.74 55.24 C 157.56 55.24 157.43 55.11 157.43 54.93 C 157.43 54.75 157.56 54.62 157.74 54.62 Z M 158.15 57.51 L 167.93 57.51 L 165.9 60 L 167.92 62.4 L 158.15 62.4 Z M 149.68 75.4 L 149.68 50.4 L 174.68 50.4 L 174.68 75.4 Z" fill="#00a4a6" style="fill: light-dark(rgb(0, 164, 166), rgb(15, 156, 158));" stroke="none" pointer-events="all"/></g><g><g><switch><foreignObject style="overflow: visible; text-align: left;" pointer-events="none" width="100%" height="100%" requiredFeatures="http://www.w3.org/TR/SVG11/feature#Extensibility"><div xmlns="http://www.w3.org/1999/xhtml" style="display: flex; align-items: unsafe flex-start; justify-content: unsafe flex-start; width: 592px; height: 1px; padding-top: 57px; margin-left: 182px;"><div style="box-sizing: border-box; font-size: 0; text-align: left; color: #147EBA; "><div style="display: inline-block; font-size: 12px; font-family: Helvetica; color: light-dark(#147EBA, #45a0d4); line-height: 1.2; pointer-events: all; white-space: normal; word-wrap: normal; ">eu-central-1</div></div></div></foreignObject><text x="182" y="69" fill="#147EBA" font-family="Helvetica" font-size="12px">eu-central-1</text></switch></g></g><g data-cell-id="gB1tynr3NcUta5bx9gjy-4"><g transform="translate(0.5,0.5)"><path d="M 187.11 100.8 L 561.32 100.8 L 561.32 554.4 L 187.11 554.4 Z" fill="none" stroke="#8c4fff" style="stroke: light-dark(rgb(140, 79, 255), rgb(177, 125, 255));" stroke-miterlimit="10" pointer-events="none"/><path d="M 187.11 100.8 L 187.11 125.8 L 212.11 125.8 L 212.11 100.8 Z M 198.1 105.18 C 199.4 105.16 200.62 105.57 201.42 106.35 C 201.89 106.8 202.25 107.31 202.52 107.9 C 202.9 107.62 203.4 107.49 203.99 107.52 C 205.1 107.57 205.96 108.59 206.14 110.02 C 207.07 110.1 207.69 110.57 208.02 111.46 L 207.43 111.68 C 207.16 110.96 206.68 110.63 205.85 110.63 C 205.68 110.63 205.55 110.5 205.54 110.34 C 205.45 108.88 204.66 108.18 203.96 108.14 C 203.37 108.11 202.93 108.28 202.66 108.63 C 202.59 108.73 202.48 108.77 202.36 108.76 C 202.25 108.74 202.16 108.66 202.12 108.55 C 201.86 107.86 201.5 107.29 200.99 106.79 C 199.87 105.71 197.81 105.48 195.97 106.24 C 194.68 106.76 193.85 108.12 193.85 109.68 C 193.85 109.86 193.87 110.12 193.89 110.28 C 193.91 110.44 193.81 110.59 193.65 110.62 C 192.21 110.98 191.48 111.85 191.48 113.2 C 191.48 113.26 191.48 113.33 191.49 113.39 C 191.57 114.95 192.55 115.95 193.98 115.95 L 198.98 115.95 L 198.98 116.57 L 193.98 116.57 C 192.22 116.57 190.97 115.31 190.86 113.44 C 190.86 113.37 190.86 113.28 190.86 113.2 C 190.86 111.63 191.68 110.56 193.24 110.09 C 193.23 109.95 193.22 109.8 193.22 109.68 C 193.22 107.86 194.21 106.28 195.73 105.66 C 196.5 105.34 197.32 105.18 198.1 105.18 Z M 204.31 110.63 C 204.35 110.63 204.4 110.64 204.44 110.66 L 208.16 112.3 C 208.27 112.35 208.34 112.46 208.34 112.59 L 208.34 117.2 C 208.35 117.27 208.36 119.23 207.09 120.52 C 206.39 121.23 205.43 121.6 204.26 121.6 C 203.08 121.6 202.13 121.23 201.43 120.52 C 200.18 119.23 200.22 117.27 200.23 117.19 L 200.23 112.53 C 200.23 112.41 200.3 112.29 200.42 112.25 L 204.19 110.66 C 204.23 110.64 204.27 110.63 204.31 110.63 Z M 204.31 111.29 L 200.85 112.74 L 200.85 117.2 C 200.85 117.22 200.82 118.99 201.89 120.09 C 202.46 120.67 203.26 120.97 204.26 120.97 C 205.26 120.97 206.06 120.67 206.64 120.08 C 207.73 118.98 207.72 117.22 207.72 117.2 L 207.72 112.79 Z M 204.31 112.37 C 204.35 112.37 204.39 112.38 204.43 112.39 L 206.9 113.45 C 207.01 113.5 207.09 113.61 207.09 113.74 L 207.09 117.82 C 206.97 118.73 206.24 120.36 204.26 120.36 C 202.34 120.36 201.6 118.73 201.48 117.86 L 201.48 113.74 C 201.48 113.61 201.55 113.5 201.67 113.45 L 204.19 112.39 C 204.23 112.38 204.27 112.37 204.31 112.37 Z M 204 113.15 L 202.1 113.95 L 202.1 117.82 C 202.11 117.85 202.38 119.55 204 119.72 Z M 204.62 113.15 L 204.62 119.71 C 206.21 119.49 206.45 117.85 206.46 117.78 L 206.46 113.94 Z" fill="#8c4fff" style="fill: light-dark(rgb(140, 79, 255), rgb(177, 125, 255));" stroke="none" pointer-events="all"/></g><g><g><switch><foreignObject style="overflow: visible; text-align: left;" pointer-events="none" width="100%" height="100%" requiredFeatures="http://www.w3.org/TR/SVG11/feature#Extensibility"><div xmlns="http://www.w3.org/1999/xhtml" style="display: flex; align-items: unsafe flex-start; justify-content: unsafe flex-start; width: 342px; height: 1px; padding-top: 108px; margin-left: 219px;"><div style="box-sizing: border-box; font-size: 0; text-align: left; color: #AAB7B8; "><div style="display: inline-block; font-size: 12px; font-family: Helvetica; color: light-dark(#AAB7B8, #4a5556); line-height: 1.2; pointer-events: all; white-space: normal; word-wrap: normal; ">VPC</div></div></div></foreignObject><text x="219" y="120" fill="#AAB7B8" font-family="Helvetica" font-size="12px">VPC</text></switch></g></g><g data-cell-id="gB1tynr3NcUta5bx9gjy-3"><g transform="translate(0.5,0.5)"><rect x="203.74" y="243.6" width="166.32" height="302.4" fill="none" stroke="#147eba" style="stroke: light-dark(rgb(20, 126, 186), rgb(69, 160, 212));" stroke-dasharray="3 3" pointer-events="all"/></g><g><g><switch><foreignObject style="overflow: visible; text-align: left;" pointer-events="none" width="100%" height="100%" requiredFeatures="http://www.w3.org/TR/SVG11/feature#Extensibility"><div xmlns="http://www.w3.org/1999/xhtml" style="display: flex; align-items: unsafe flex-start; justify-content: unsafe center; width: 164px; height: 1px; padding-top: 251px; margin-left: 205px;"><div style="box-sizing: border-box; font-size: 0; text-align: center; color: #147EBA; "><div style="display: inline-block; font-size: 12px; font-family: Helvetica; color: light-dark(#147EBA, #45a0d4); line-height: 1.2; pointer-events: all; white-space: normal; word-wrap: normal; ">AZ1 eu-central-1a</div></div></div></foreignObject><text x="287" y="263" fill="#147EBA" font-family="Helvetica" font-size="12px" text-anchor="middle">AZ1 eu-central-1a</text></switch></g></g></g><g data-cell-id="gB1tynr3NcUta5bx9gjy-5"><g transform="translate(0.5,0.5)"><path d="M 220.37 386.4 L 353.42 386.4 L 353.42 537.6 L 220.37 537.6 Z" fill="#e6f6f7" style="fill: light-dark(rgb(230, 246, 247), rgb(18, 31, 32));" stroke="none" pointer-events="none"/><path d="M 220.37 386.4 L 245.37 386.4 L 245.37 411.4 L 220.37 411.4 Z M 232.89 389.61 C 231.77 389.61 230.68 390.03 229.85 390.79 C 229.04 391.51 228.57 392.55 228.57 393.64 L 228.57 396.18 L 226.26 396.18 C 226.16 396.18 226.07 396.22 226 396.29 C 225.94 396.35 225.9 396.44 225.9 396.54 L 225.9 407.83 C 225.9 408.03 226.06 408.19 226.26 408.19 L 239.48 408.19 C 239.67 408.19 239.83 408.03 239.83 407.83 L 239.83 396.55 C 239.84 396.46 239.8 396.37 239.73 396.3 C 239.67 396.23 239.58 396.19 239.48 396.19 L 237.18 396.19 L 237.18 393.69 C 237.17 392.61 236.72 391.58 235.92 390.84 C 235.11 390.05 234.02 389.62 232.89 389.61 Z M 232.88 390.33 C 233.83 390.32 234.74 390.68 235.43 391.33 C 236.09 391.94 236.47 392.8 236.47 393.69 L 236.47 396.19 L 229.25 396.19 L 229.26 393.66 C 229.27 392.76 229.65 391.91 230.32 391.31 C 231.02 390.67 231.94 390.32 232.88 390.33 Z M 226.61 396.9 L 239.13 396.9 L 239.12 407.47 L 226.61 407.47 Z M 232.88 399.14 C 231.85 399.13 230.98 399.91 230.88 400.93 C 230.79 401.96 231.5 402.88 232.51 403.06 L 232.51 405.84 L 233.23 405.84 L 233.23 403.06 C 234.16 402.89 234.84 402.07 234.85 401.12 C 234.85 400.03 233.97 399.15 232.88 399.14 Z M 232.76 399.85 C 232.8 399.85 232.84 399.85 232.88 399.86 C 233.21 399.86 233.53 399.99 233.77 400.23 C 234 400.47 234.13 400.79 234.13 401.12 C 234.14 401.46 234.01 401.78 233.77 402.01 C 233.53 402.25 233.21 402.38 232.88 402.38 C 232.41 402.42 231.96 402.2 231.71 401.82 C 231.45 401.43 231.43 400.93 231.65 400.52 C 231.87 400.11 232.3 399.86 232.76 399.85 Z" fill="#00a4a6" style="fill: light-dark(rgb(0, 164, 166), rgb(15, 156, 158));" stroke="none" pointer-events="all"/></g><g><g><switch><foreignObject style="overflow: visible; text-align: left;" pointer-events="none" width="100%" height="100%" requiredFeatures="http://www.w3.org/TR/SVG11/feature#Extensibility"><div xmlns="http://www.w3.org/1999/xhtml" style="display: flex; align-items: unsafe flex-start; justify-content: unsafe flex-start; width: 101px; height: 1px; padding-top: 393px; margin-left: 252px;"><div style="box-sizing: border-box; font-size: 0; text-align: left; color: #147EBA; "><div style="display: inline-block; font-size: 12px; font-family: Helvetica; color: light-dark(#147EBA, #45a0d4); line-height: 1.2; pointer-events: all; white-space: normal; word-wrap: normal; ">Private subnet</div></div></div></foreignObject><text x="252" y="405" fill="#147EBA" font-family="Helvetica" font-size="12px">Private subnet</text></switch></g></g></g><g data-cell-id="gB1tynr3NcUta5bx9gjy-6"><g transform="translate(0.5,0.5)"><path d="M 220.37 268.8 L 353.42 268.8 L 353.42 369.6 L 220.37 369.6 Z" fill="#f2f6e8" style="fill: light-dark(rgb(242, 246, 232), rgb(26, 29, 17));" stroke="none" pointer-events="none"/><path d="M 220.37 268.8 L 245.37 268.8 L 245.37 293.8 L 220.37 293.8 Z M 232.89 272.01 C 231.77 272.01 230.68 272.43 229.85 273.19 C 229.04 273.91 228.57 274.95 228.57 276.04 L 228.57 278.58 L 226.26 278.58 C 226.16 278.58 226.07 278.62 226 278.69 C 225.94 278.75 225.9 278.84 225.9 278.93 L 225.9 290.23 C 225.9 290.43 226.06 290.59 226.26 290.59 L 239.48 290.59 C 239.67 290.59 239.83 290.43 239.83 290.23 L 239.83 278.95 C 239.84 278.86 239.8 278.77 239.73 278.7 C 239.67 278.63 239.58 278.59 239.48 278.59 L 237.18 278.59 L 237.18 276.09 C 237.17 275.01 236.72 273.98 235.92 273.24 C 235.11 272.45 234.02 272.02 232.89 272.01 Z M 232.88 272.73 C 233.83 272.72 234.74 273.08 235.43 273.73 C 236.09 274.34 236.47 275.2 236.47 276.09 L 236.47 278.59 L 229.25 278.59 L 229.26 276.06 C 229.27 275.16 229.65 274.31 230.32 273.71 C 231.02 273.07 231.94 272.72 232.88 272.73 Z M 226.61 279.3 L 239.13 279.3 L 239.12 289.87 L 226.61 289.87 Z M 232.88 281.54 C 231.85 281.53 230.98 282.31 230.88 283.33 C 230.79 284.36 231.5 285.28 232.51 285.46 L 232.51 288.24 L 233.23 288.24 L 233.23 285.46 C 234.16 285.29 234.84 284.47 234.85 283.52 C 234.85 282.43 233.97 281.55 232.88 281.54 Z M 232.76 282.25 C 232.8 282.25 232.84 282.25 232.88 282.26 C 233.21 282.26 233.53 282.39 233.77 282.63 C 234 282.87 234.13 283.19 234.13 283.52 C 234.14 283.86 234.01 284.18 233.77 284.41 C 233.53 284.65 233.21 284.78 232.88 284.78 C 232.41 284.82 231.96 284.6 231.71 284.22 C 231.45 283.83 231.43 283.33 231.65 282.92 C 231.87 282.51 232.3 282.26 232.76 282.25 Z" fill="#7aa116" style="fill: light-dark(rgb(122, 161, 22), rgb(97, 130, 11));" stroke="none" pointer-events="all"/></g><g><g><switch><foreignObject style="overflow: visible; text-align: left;" pointer-events="none" width="100%" height="100%" requiredFeatures="http://www.w3.org/TR/SVG11/feature#Extensibility"><div xmlns="http://www.w3.org/1999/xhtml" style="display: flex; align-items: unsafe flex-start; justify-content: unsafe flex-start; width: 101px; height: 1px; padding-top: 276px; margin-left: 252px;"><div style="box-sizing: border-box; font-size: 0; text-align: left; color: #248814; "><div style="display: inline-block; font-size: 12px; font-family: Helvetica; color: light-dark(#248814, #55ab47); line-height: 1.2; pointer-events: all; white-space: normal; word-wrap: normal; ">Public subnet</div></div></div></foreignObject><text x="252" y="288" fill="#248814" font-family="Helvetica" font-size="12px">Public subnet</text></switch></g></g><g data-cell-id="gB1tynr3NcUta5bx9gjy-12"><g transform="translate(0.5,0.5)"><rect x="265.27" y="292.32" width="43.24" height="43.24" fill="none" stroke="none" pointer-events="all"/><path d="M 276.7 325.65 L 276.7 322.87 L 278.44 324.26 Z M 276.33 320.05 C 276.03 319.82 275.63 319.77 275.29 319.94 C 274.95 320.1 274.73 320.44 274.73 320.82 L 274.73 327.7 C 274.73 328.08 274.95 328.42 275.29 328.58 C 275.43 328.65 275.57 328.68 275.72 328.68 C 275.94 328.68 276.15 328.61 276.33 328.47 L 280.63 325.03 C 280.86 324.84 281 324.56 281 324.26 C 281 323.96 280.86 323.68 280.63 323.49 Z M 299.92 316.73 L 299.92 312.87 L 301.84 314.8 Z M 303.93 314.11 L 299.63 309.81 C 299.35 309.53 298.93 309.44 298.56 309.59 C 298.19 309.75 297.95 310.1 297.95 310.5 L 297.95 313.82 L 290.46 313.82 L 290.46 304.48 C 290.46 303.94 290.02 303.5 289.47 303.5 L 281.91 303.5 L 281.91 305.46 L 288.49 305.46 L 288.49 313.82 L 281.74 313.82 L 281.74 315.78 L 288.49 315.78 L 288.49 324.14 L 281.91 324.14 L 281.91 326.1 L 289.47 326.1 C 290.02 326.1 290.46 325.66 290.46 325.12 L 290.46 315.78 L 297.95 315.78 L 297.95 319.1 C 297.95 319.5 298.19 319.86 298.56 320.01 C 298.68 320.06 298.81 320.08 298.93 320.08 C 299.19 320.08 299.44 319.98 299.63 319.8 L 303.93 315.5 C 304.31 315.11 304.31 314.49 303.93 314.11 Z M 276.7 316.2 L 276.7 313.41 L 278.44 314.8 Z M 276.33 310.59 C 276.03 310.36 275.63 310.31 275.29 310.48 C 274.95 310.64 274.73 310.98 274.73 311.36 L 274.73 318.24 C 274.73 318.62 274.95 318.96 275.29 319.13 C 275.43 319.19 275.57 319.22 275.72 319.22 C 275.94 319.22 276.15 319.15 276.33 319.01 L 280.63 315.57 C 280.86 315.38 281 315.1 281 314.8 C 281 314.5 280.86 314.22 280.63 314.03 Z M 276.7 305.88 L 276.7 303.09 L 278.44 304.48 Z M 276.33 300.28 C 276.03 300.04 275.63 299.99 275.29 300.16 C 274.95 300.32 274.73 300.66 274.73 301.04 L 274.73 307.92 C 274.73 308.3 274.95 308.64 275.29 308.81 C 275.43 308.87 275.57 308.9 275.72 308.9 C 275.94 308.9 276.15 308.83 276.33 308.69 L 280.63 305.25 C 280.86 305.06 281 304.78 281 304.48 C 281 304.18 280.86 303.9 280.63 303.71 Z M 286.89 333.6 C 276.06 333.6 267.24 324.78 267.24 313.94 C 267.24 303.1 276.06 294.29 286.89 294.29 C 297.73 294.29 306.55 303.1 306.55 313.94 C 306.55 324.78 297.73 333.6 286.89 333.6 Z M 286.89 292.32 C 274.97 292.32 265.27 302.02 265.27 313.94 C 265.27 325.86 274.97 335.56 286.89 335.56 C 298.82 335.56 308.52 325.86 308.52 313.94 C 308.52 302.02 298.82 292.32 286.89 292.32 Z" fill="#8c4fff" style="fill: light-dark(rgb(140, 79, 255), rgb(177, 125, 255));" stroke="none" pointer-events="all"/></g><g><g><switch><foreignObject style="overflow: visible; text-align: left;" pointer-events="none" width="100%" height="100%" requiredFeatures="http://www.w3.org/TR/SVG11/feature#Extensibility"><div xmlns="http://www.w3.org/1999/xhtml" style="display: flex; align-items: unsafe flex-start; justify-content: unsafe center; width: 1px; height: 1px; padding-top: 343px; margin-left: 287px;"><div style="box-sizing: border-box; font-size: 0; text-align: center; color: #232F3E; "><div style="display: inline-block; font-size: 12px; font-family: Helvetica; color: light-dark(#232F3E, #bdc7d4); line-height: 1.2; pointer-events: all; white-space: nowrap; "><div>NAT Gateway</div><div><font style="font-size: 10px; color: light-dark(rgb(128, 128, 128), rgb(127, 127, 127));">outbound only</font></div></div></div></div></foreignObject><text x="287" y="355" fill="#232F3E" font-family="Helvetica" font-size="12px" text-anchor="middle">NAT Gat...</text></switch></g></g></g></g><g data-cell-id="gB1tynr3NcUta5bx9gjy-11"><g transform="translate(0.5,0.5)"><rect x="345.11" y="134.4" width="49.89" height="49.89" fill="none" stroke="none" pointer-events="all"/><path d="M 370.05 134.4 C 356.3 134.4 345.11 145.59 345.11 159.35 C 345.11 173.1 356.3 184.29 370.05 184.29 C 383.81 184.29 395 173.1 395 159.35 C 395 145.59 383.81 134.4 370.05 134.4 Z M 370.05 182.03 C 357.55 182.03 347.37 171.85 347.37 159.35 C 347.37 146.84 357.55 136.67 370.05 136.67 C 382.56 136.67 392.73 146.84 392.73 159.35 C 392.73 171.85 382.56 182.03 370.05 182.03 Z M 384.83 166.15 L 383.09 166.15 L 383.09 162.32 C 383.09 161.7 382.59 161.19 381.96 161.19 L 379.12 161.19 L 379.12 157.36 C 379.12 156.74 378.62 156.23 377.99 156.23 L 371.19 156.23 L 371.19 153.54 L 377.99 153.54 C 378.62 153.54 379.12 153.03 379.12 152.4 L 379.12 143.47 C 379.12 142.85 378.62 142.34 377.99 142.34 L 362.12 142.34 C 361.49 142.34 360.98 142.85 360.98 143.47 L 360.98 152.4 C 360.98 153.03 361.49 153.54 362.12 153.54 L 368.92 153.54 L 368.92 156.23 L 362.12 156.23 C 361.49 156.23 360.98 156.74 360.98 157.36 L 360.98 161.19 L 358.15 161.19 C 357.52 161.19 357.01 161.7 357.01 162.32 L 357.01 166.15 L 355.27 166.15 C 354.65 166.15 354.14 166.66 354.14 167.28 L 354.14 172.25 C 354.14 172.87 354.65 173.38 355.27 173.38 L 360.13 173.38 C 360.76 173.38 361.27 172.87 361.27 172.25 L 361.27 167.28 C 361.27 166.66 360.76 166.15 360.13 166.15 L 359.28 166.15 L 359.28 163.46 L 363.96 163.46 L 363.96 166.15 L 363.11 166.15 C 362.48 166.15 361.97 166.66 361.97 167.28 L 361.97 172.25 C 361.97 172.87 362.48 173.38 363.11 173.38 L 368.07 173.38 C 368.69 173.38 369.2 172.87 369.2 172.25 L 369.2 167.28 C 369.2 166.66 368.69 166.15 368.07 166.15 L 366.23 166.15 L 366.23 162.32 C 366.23 161.7 365.72 161.19 365.09 161.19 L 363.25 161.19 L 363.25 158.5 L 376.86 158.5 L 376.86 161.19 L 375.01 161.19 C 374.39 161.19 373.88 161.7 373.88 162.32 L 373.88 166.15 L 372.04 166.15 C 371.41 166.15 370.9 166.66 370.9 167.28 L 370.9 172.25 C 370.9 172.87 371.41 173.38 372.04 173.38 L 377 173.38 C 377.62 173.38 378.13 172.87 378.13 172.25 L 378.13 167.28 C 378.13 166.66 377.62 166.15 377 166.15 L 376.15 166.15 L 376.15 163.46 L 380.83 163.46 L 380.83 166.15 L 379.91 166.15 C 379.28 166.15 378.77 166.66 378.77 167.28 L 378.77 172.25 C 378.77 172.87 379.28 173.38 379.91 173.38 L 384.83 173.38 C 385.46 173.38 385.97 172.87 385.97 172.25 L 385.97 167.28 C 385.97 166.66 385.46 166.15 384.83 166.15 Z M 363.25 151.27 L 363.25 144.61 L 376.86 144.61 L 376.86 151.27 Z M 356.41 171.11 L 356.41 168.42 L 359 168.42 L 359 171.11 Z M 364.24 171.11 L 364.24 168.42 L 366.93 168.42 L 366.93 171.11 Z M 373.17 171.11 L 373.17 168.42 L 375.86 168.42 L 375.86 171.11 Z M 381.04 171.11 L 381.04 168.42 L 383.7 168.42 L 383.7 171.11 Z" fill="#8c4fff" style="fill: light-dark(rgb(140, 79, 255), rgb(177, 125, 255));" stroke="none" pointer-events="all"/></g><g><g><switch><foreignObject style="overflow: visible; text-align: left;" pointer-events="none" width="100%" height="100%" requiredFeatures="http://www.w3.org/TR/SVG11/feature#Extensibility"><div xmlns="http://www.w3.org/1999/xhtml" style="display: flex; align-items: unsafe flex-start; justify-content: unsafe center; width: 1px; height: 1px; padding-top: 191px; margin-left: 370px;"><div style="box-sizing: border-box; font-size: 0; text-align: center; color: #232F3E; "><div style="display: inline-block; font-size: 12px; font-family: Helvetica; color: light-dark(#232F3E, #bdc7d4); line-height: 1.2; pointer-events: all; white-space: nowrap; ">ALB<br /><font style="font-size: 10px; color: light-dark(rgb(128, 128, 128), rgb(127, 127, 127));">port 80 / 443</font></div></div></div></foreignObject><text x="370" y="203" fill="#232F3E" font-family="Helvetica" font-size="12px" text-anchor="middle">ALB...</text></switch></g></g></g><g data-cell-id="gB1tynr3NcUta5bx9gjy-31"><g transform="translate(0.5,0.5)"><rect x="378.37" y="243.6" width="174.63" height="302.4" fill="none" stroke="#147eba" style="stroke: light-dark(rgb(20, 126, 186), rgb(69, 160, 212));" stroke-dasharray="3 3" pointer-events="all"/></g><g><g><switch><foreignObject style="overflow: visible; text-align: left;" pointer-events="none" width="100%" height="100%" requiredFeatures="http://www.w3.org/TR/SVG11/feature#Extensibility"><div xmlns="http://www.w3.org/1999/xhtml" style="display: flex; align-items: unsafe flex-start; justify-content: unsafe center; width: 173px; height: 1px; padding-top: 251px; margin-left: 379px;"><div style="box-sizing: border-box; font-size: 0; text-align: center; color: #147EBA; "><div style="display: inline-block; font-size: 12px; font-family: Helvetica; color: light-dark(#147EBA, #45a0d4); line-height: 1.2; pointer-events: all; white-space: normal; word-wrap: normal; ">AZ2 eu-central-1b</div></div></div></foreignObject><text x="466" y="263" fill="#147EBA" font-family="Helvetica" font-size="12px" text-anchor="middle">AZ2 eu-central-1b</text></switch></g></g></g><g data-cell-id="gB1tynr3NcUta5bx9gjy-34"><g transform="translate(0.5,0.5)"><path d="M 399.16 268.8 L 532.21 268.8 L 532.21 369.6 L 399.16 369.6 Z" fill="#f2f6e8" style="fill: light-dark(rgb(242, 246, 232), rgb(26, 29, 17));" stroke="none" pointer-events="none"/><path d="M 399.16 268.8 L 424.16 268.8 L 424.16 293.8 L 399.16 293.8 Z M 411.68 272.01 C 410.55 272.01 409.47 272.43 408.64 273.19 C 407.83 273.91 407.36 274.95 407.36 276.04 L 407.36 278.58 L 405.05 278.58 C 404.95 278.58 404.86 278.62 404.79 278.69 C 404.73 278.75 404.69 278.84 404.69 278.93 L 404.69 290.23 C 404.69 290.43 404.85 290.59 405.05 290.59 L 418.27 290.59 C 418.46 290.59 418.62 290.43 418.62 290.23 L 418.62 278.95 C 418.63 278.86 418.59 278.77 418.52 278.7 C 418.46 278.63 418.37 278.59 418.27 278.59 L 415.97 278.59 L 415.97 276.09 C 415.96 275.01 415.51 273.98 414.71 273.24 C 413.9 272.45 412.81 272.02 411.68 272.01 Z M 411.67 272.73 C 412.62 272.72 413.53 273.08 414.22 273.73 C 414.88 274.34 415.26 275.2 415.26 276.09 L 415.26 278.59 L 408.04 278.59 L 408.05 276.06 C 408.06 275.16 408.44 274.31 409.11 273.71 C 409.81 273.07 410.72 272.72 411.67 272.73 Z M 405.4 279.3 L 417.92 279.3 L 417.91 289.87 L 405.4 289.87 Z M 411.67 281.54 C 410.64 281.53 409.77 282.31 409.67 283.33 C 409.58 284.36 410.29 285.28 411.3 285.46 L 411.3 288.24 L 412.02 288.24 L 412.02 285.46 C 412.95 285.29 413.63 284.47 413.64 283.52 C 413.64 282.43 412.75 281.55 411.67 281.54 Z M 411.55 282.25 C 411.59 282.25 411.63 282.25 411.67 282.26 C 412 282.26 412.32 282.39 412.56 282.63 C 412.79 282.87 412.92 283.19 412.92 283.52 C 412.93 283.86 412.79 284.18 412.56 284.41 C 412.32 284.65 412 284.78 411.67 284.78 C 411.2 284.82 410.75 284.6 410.5 284.22 C 410.24 283.83 410.22 283.33 410.44 282.92 C 410.66 282.51 411.08 282.26 411.55 282.25 Z" fill="#7aa116" style="fill: light-dark(rgb(122, 161, 22), rgb(97, 130, 11));" stroke="none" pointer-events="all"/></g><g><g><switch><foreignObject style="overflow: visible; text-align: left;" pointer-events="none" width="100%" height="100%" requiredFeatures="http://www.w3.org/TR/SVG11/feature#Extensibility"><div xmlns="http://www.w3.org/1999/xhtml" style="display: flex; align-items: unsafe flex-start; justify-content: unsafe flex-start; width: 101px; height: 1px; padding-top: 276px; margin-left: 431px;"><div style="box-sizing: border-box; font-size: 0; text-align: left; color: #248814; "><div style="display: inline-block; font-size: 12px; font-family: Helvetica; color: light-dark(#248814, #55ab47); line-height: 1.2; pointer-events: all; white-space: normal; word-wrap: normal; ">Public subnet</div></div></div></foreignObject><text x="431" y="288" fill="#248814" font-family="Helvetica" font-size="12px">Public subnet</text></switch></g></g><g data-cell-id="gB1tynr3NcUta5bx9gjy-35"><g transform="translate(0.5,0.5)"><rect x="444.06" y="292.32" width="43.24" height="43.24" fill="none" stroke="none" pointer-events="all"/><path d="M 455.49 325.65 L 455.49 322.87 L 457.23 324.26 Z M 455.12 320.05 C 454.82 319.82 454.42 319.77 454.08 319.94 C 453.74 320.1 453.52 320.44 453.52 320.82 L 453.52 327.7 C 453.52 328.08 453.74 328.42 454.08 328.58 C 454.22 328.65 454.36 328.68 454.51 328.68 C 454.72 328.68 454.94 328.61 455.12 328.47 L 459.42 325.03 C 459.65 324.84 459.79 324.56 459.79 324.26 C 459.79 323.96 459.65 323.68 459.42 323.49 Z M 478.71 316.73 L 478.71 312.87 L 480.63 314.8 Z M 482.72 314.11 L 478.42 309.81 C 478.14 309.53 477.72 309.44 477.35 309.59 C 476.98 309.75 476.74 310.1 476.74 310.5 L 476.74 313.82 L 469.25 313.82 L 469.25 304.48 C 469.25 303.94 468.81 303.5 468.26 303.5 L 460.7 303.5 L 460.7 305.46 L 467.28 305.46 L 467.28 313.82 L 460.52 313.82 L 460.52 315.78 L 467.28 315.78 L 467.28 324.14 L 460.7 324.14 L 460.7 326.1 L 468.26 326.1 C 468.81 326.1 469.25 325.66 469.25 325.12 L 469.25 315.78 L 476.74 315.78 L 476.74 319.1 C 476.74 319.5 476.98 319.86 477.35 320.01 C 477.47 320.06 477.6 320.08 477.72 320.08 C 477.98 320.08 478.23 319.98 478.42 319.8 L 482.72 315.5 C 483.1 315.11 483.1 314.49 482.72 314.11 Z M 455.49 316.2 L 455.49 313.41 L 457.23 314.8 Z M 455.12 310.59 C 454.82 310.36 454.42 310.31 454.08 310.48 C 453.74 310.64 453.52 310.98 453.52 311.36 L 453.52 318.24 C 453.52 318.62 453.74 318.96 454.08 319.13 C 454.22 319.19 454.36 319.22 454.51 319.22 C 454.72 319.22 454.94 319.15 455.12 319.01 L 459.42 315.57 C 459.65 315.38 459.79 315.1 459.79 314.8 C 459.79 314.5 459.65 314.22 459.42 314.03 Z M 455.49 305.88 L 455.49 303.09 L 457.23 304.48 Z M 455.12 300.28 C 454.82 300.04 454.42 299.99 454.08 300.16 C 453.74 300.32 453.52 300.66 453.52 301.04 L 453.52 307.92 C 453.52 308.3 453.74 308.64 454.08 308.81 C 454.22 308.87 454.36 308.9 454.51 308.9 C 454.72 308.9 454.94 308.83 455.12 308.69 L 459.42 305.25 C 459.65 305.06 459.79 304.78 459.79 304.48 C 459.79 304.18 459.65 303.9 459.42 303.71 Z M 465.68 333.6 C 454.85 333.6 446.03 324.78 446.03 313.94 C 446.03 303.1 454.85 294.29 465.68 294.29 C 476.52 294.29 485.34 303.1 485.34 313.94 C 485.34 324.78 476.52 333.6 465.68 333.6 Z M 465.68 292.32 C 453.76 292.32 444.06 302.02 444.06 313.94 C 444.06 325.86 453.76 335.56 465.68 335.56 C 477.61 335.56 487.31 325.86 487.31 313.94 C 487.31 302.02 477.61 292.32 465.68 292.32 Z" fill="#8c4fff" style="fill: light-dark(rgb(140, 79, 255), rgb(177, 125, 255));" stroke="none" pointer-events="all"/></g><g><g><switch><foreignObject style="overflow: visible; text-align: left;" pointer-events="none" width="100%" height="100%" requiredFeatures="http://www.w3.org/TR/SVG11/feature#Extensibility"><div xmlns="http://www.w3.org/1999/xhtml" style="display: flex; align-items: unsafe flex-start; justify-content: unsafe center; width: 1px; height: 1px; padding-top: 343px; margin-left: 466px;"><div style="box-sizing: border-box; font-size: 0; text-align: center; color: #232F3E; "><div style="display: inline-block; font-size: 12px; font-family: Helvetica; color: light-dark(#232F3E, #bdc7d4); line-height: 1.2; pointer-events: all; white-space: nowrap; "><div>NAT Gateway</div><div><font style="font-size: 10px; color: light-dark(rgb(128, 128, 128), rgb(127, 127, 127));">outbound only</font></div></div></div></div></foreignObject><text x="466" y="355" fill="#232F3E" font-family="Helvetica" font-size="12px" text-anchor="middle">NAT Gat...</text></switch></g></g></g></g><g data-cell-id="gB1tynr3NcUta5bx9gjy-47"><g transform="translate(0.5,0.5)"><path d="M 399.16 386.4 L 532.21 386.4 L 532.21 537.6 L 399.16 537.6 Z" fill="#e6f6f7" style="fill: light-dark(rgb(230, 246, 247), rgb(18, 31, 32));" stroke="none" pointer-events="none"/><path d="M 399.16 386.4 L 424.16 386.4 L 424.16 411.4 L 399.16 411.4 Z M 411.68 389.61 C 410.55 389.61 409.47 390.03 408.64 390.79 C 407.83 391.51 407.36 392.55 407.36 393.64 L 407.36 396.18 L 405.05 396.18 C 404.95 396.18 404.86 396.22 404.79 396.29 C 404.73 396.35 404.69 396.44 404.69 396.54 L 404.69 407.83 C 404.69 408.03 404.85 408.19 405.05 408.19 L 418.27 408.19 C 418.46 408.19 418.62 408.03 418.62 407.83 L 418.62 396.55 C 418.63 396.46 418.59 396.37 418.52 396.3 C 418.46 396.23 418.37 396.19 418.27 396.19 L 415.97 396.19 L 415.97 393.69 C 415.96 392.61 415.51 391.58 414.71 390.84 C 413.9 390.05 412.81 389.62 411.68 389.61 Z M 411.67 390.33 C 412.62 390.32 413.53 390.68 414.22 391.33 C 414.88 391.94 415.26 392.8 415.26 393.69 L 415.26 396.19 L 408.04 396.19 L 408.05 393.66 C 408.06 392.76 408.44 391.91 409.11 391.31 C 409.81 390.67 410.72 390.32 411.67 390.33 Z M 405.4 396.9 L 417.92 396.9 L 417.91 407.47 L 405.4 407.47 Z M 411.67 399.14 C 410.64 399.13 409.77 399.91 409.67 400.93 C 409.58 401.96 410.29 402.88 411.3 403.06 L 411.3 405.84 L 412.02 405.84 L 412.02 403.06 C 412.95 402.89 413.63 402.07 413.64 401.12 C 413.64 400.03 412.75 399.15 411.67 399.14 Z M 411.55 399.85 C 411.59 399.85 411.63 399.85 411.67 399.86 C 412 399.86 412.32 399.99 412.56 400.23 C 412.79 400.47 412.92 400.79 412.92 401.12 C 412.93 401.46 412.79 401.78 412.56 402.01 C 412.32 402.25 412 402.38 411.67 402.38 C 411.2 402.42 410.75 402.2 410.5 401.82 C 410.24 401.43 410.22 400.93 410.44 400.52 C 410.66 400.11 411.08 399.86 411.55 399.85 Z" fill="#00a4a6" style="fill: light-dark(rgb(0, 164, 166), rgb(15, 156, 158));" stroke="none" pointer-events="all"/></g><g><g><switch><foreignObject style="overflow: visible; text-align: left;" pointer-events="none" width="100%" height="100%" requiredFeatures="http://www.w3.org/TR/SVG11/feature#Extensibility"><div xmlns="http://www.w3.org/1999/xhtml" style="display: flex; align-items: unsafe flex-start; justify-content: unsafe flex-start; width: 101px; height: 1px; padding-top: 393px; margin-left: 431px;"><div style="box-sizing: border-box; font-size: 0; text-align: left; color: #147EBA; "><div style="display: inline-block; font-size: 12px; font-family: Helvetica; color: light-dark(#147EBA, #45a0d4); line-height: 1.2; pointer-events: all; white-space: normal; word-wrap: normal; ">Private subnet</div></div></div></foreignObject><text x="431" y="405" fill="#147EBA" font-family="Helvetica" font-size="12px">Private subnet</text></switch></g></g><g data-cell-id="gB1tynr3NcUta5bx9gjy-54"><g transform="translate(0.5,0.5)"><path d="M 446.82 442.93 L 484.56 442.93 L 484.56 480.68 L 446.82 480.68 Z" fill="#ed7100" style="fill: light-dark(rgb(237, 113, 0), rgb(216, 109, 12));" stroke="none" pointer-events="all"/><path d="M 472.79 471.29 L 472.79 468.43 L 474.57 467.72 L 474.57 470.58 Z M 469.83 467.72 L 471.61 468.43 L 471.61 471.29 L 469.83 470.58 Z M 466.28 475.44 L 466.28 472.57 L 468.06 471.86 L 468.06 474.73 Z M 463.32 471.86 L 465.1 472.57 L 465.1 475.44 L 463.32 474.73 Z M 459.77 471.29 L 459.77 468.43 L 461.55 467.72 L 461.55 470.58 Z M 456.81 467.72 L 458.59 468.43 L 458.59 471.29 L 456.81 470.58 Z M 459.18 466.3 L 460.54 466.84 L 459.18 467.39 L 457.81 466.84 Z M 465.69 470.44 L 467.05 470.98 L 465.69 471.53 L 464.32 470.98 Z M 472.2 466.3 L 473.56 466.84 L 472.2 467.39 L 470.83 466.84 Z M 475.38 466.29 L 472.42 465.11 C 472.28 465.05 472.12 465.05 471.98 465.11 L 469.02 466.29 C 468.79 466.38 468.65 466.6 468.65 466.84 L 468.65 470.35 L 465.91 469.25 C 465.77 469.2 465.61 469.2 465.47 469.25 L 462.73 470.35 L 462.73 466.84 C 462.73 466.6 462.58 466.38 462.36 466.29 L 459.4 465.11 C 459.26 465.05 459.1 465.05 458.96 465.11 L 456 466.29 C 455.77 466.38 455.63 466.6 455.63 466.84 L 455.63 470.98 C 455.63 471.23 455.77 471.44 456 471.53 L 458.96 472.72 C 459.03 472.75 459.1 472.76 459.18 472.76 C 459.25 472.76 459.33 472.75 459.4 472.72 L 462.14 471.62 L 462.14 475.13 C 462.14 475.37 462.28 475.59 462.51 475.68 L 465.47 476.86 C 465.54 476.89 465.61 476.9 465.69 476.9 C 465.76 476.9 465.84 476.89 465.91 476.86 L 468.87 475.68 C 469.09 475.59 469.24 475.37 469.24 475.13 L 469.24 471.62 L 471.98 472.72 C 472.05 472.75 472.12 472.76 472.2 472.76 C 472.27 472.76 472.35 472.75 472.42 472.72 L 475.38 471.53 C 475.6 471.44 475.75 471.23 475.75 470.98 L 475.75 466.84 C 475.75 466.6 475.6 466.38 475.38 466.29 Z M 480.48 459.11 C 480.48 462.57 472.86 464.44 465.69 464.44 C 458.52 464.44 450.89 462.57 450.89 459.11 C 450.89 457.46 452.72 456.01 456.05 455.02 L 456.39 456.15 C 453.73 456.94 452.08 458.08 452.08 459.11 C 452.08 461.07 457.67 463.25 465.69 463.25 C 473.71 463.25 479.3 461.07 479.3 459.11 C 479.3 458.08 477.65 456.94 474.99 456.15 L 475.33 455.02 C 478.65 456.01 480.48 457.46 480.48 459.11 Z M 465.69 447.95 L 471.73 450.27 L 465.69 452.6 L 459.64 450.27 Z M 471.95 459.65 C 470.83 460.15 468.96 460.73 466.28 460.81 L 466.28 453.64 L 472.79 451.13 L 472.79 458.35 C 472.79 458.91 472.46 459.42 471.95 459.65 Z M 458.59 458.35 L 458.59 451.13 L 465.1 453.64 L 465.1 460.81 C 462.42 460.73 460.54 460.15 459.42 459.65 C 458.92 459.42 458.59 458.91 458.59 458.35 Z M 458.94 460.73 C 460.25 461.31 462.47 462 465.69 462 C 468.9 462 471.13 461.31 472.43 460.73 C 473.37 460.31 473.97 459.38 473.97 458.35 L 473.97 450.27 C 473.97 450.03 473.82 449.81 473.59 449.72 L 465.9 446.76 C 465.76 446.71 465.61 446.71 465.48 446.76 L 457.78 449.72 C 457.55 449.81 457.4 450.03 457.4 450.27 L 457.4 458.35 C 457.4 459.38 458.01 460.31 458.94 460.73 Z" fill="#ffffff" style="fill: light-dark(rgb(255, 255, 255), rgb(18, 18, 18));" stroke="none" pointer-events="all"/></g><g><g><switch><foreignObject style="overflow: visible; text-align: left;" pointer-events="none" width="100%" height="100%" requiredFeatures="http://www.w3.org/TR/SVG11/feature#Extensibility"><div xmlns="http://www.w3.org/1999/xhtml" style="display: flex; align-items: unsafe flex-start; justify-content: unsafe center; width: 1px; height: 1px; padding-top: 488px; margin-left: 466px;"><div style="box-sizing: border-box; font-size: 0; text-align: center; color: #232F3E; "><div style="display: inline-block; font-size: 12px; font-family: Helvetica; color: light-dark(#232F3E, #bdc7d4); line-height: 1.2; pointer-events: all; white-space: nowrap; ">Fargate<br />Task</div></div></div></foreignObject><text x="466" y="500" fill="#232F3E" font-family="Helvetica" font-size="12px" text-anchor="middle">Fargat...</text></switch></g></g></g></g><g data-cell-id="gB1tynr3NcUta5bx9gjy-42"><g transform="translate(0.5,0.5)"><path d="M 228.68 415.8 L 519.74 415.8 L 519.74 520.8 L 228.68 520.8 Z" fill="none" stroke="#d86613" style="stroke: light-dark(rgb(216, 102, 19), rgb(216, 118, 46));" stroke-miterlimit="10" pointer-events="none"/><path d="M 228.68 415.8 L 253.68 415.8 L 253.68 440.8 L 228.68 440.8 Z M 249.76 424.17 L 249.76 423.46 L 248.08 423.46 L 248.08 421.41 L 245.93 421.41 L 245.93 419.73 L 245.22 419.73 L 245.22 421.41 L 243.68 421.41 L 243.68 419.73 L 242.97 419.73 L 242.97 421.41 L 241.46 421.41 L 241.46 419.73 L 240.74 419.73 L 240.74 421.41 L 239.21 421.41 L 239.21 419.73 L 238.5 419.73 L 238.5 421.41 L 236.97 421.41 L 236.97 419.73 L 236.26 419.73 L 236.26 421.41 L 234.29 421.41 L 234.29 423.46 L 232.61 423.46 L 232.61 424.17 L 234.29 424.17 L 234.29 425.7 L 232.61 425.7 L 232.61 426.41 L 234.29 426.41 L 234.29 427.94 L 232.61 427.94 L 232.61 428.66 L 234.29 428.66 L 234.29 430.19 L 232.61 430.19 L 232.61 430.9 L 234.29 430.9 L 234.29 432.43 L 232.61 432.43 L 232.61 433.14 L 234.29 433.14 L 234.29 435.19 L 236.26 435.19 L 236.26 436.87 L 236.97 436.87 L 236.97 435.19 L 238.5 435.19 L 238.5 436.87 L 239.21 436.87 L 239.21 435.19 L 240.74 435.19 L 240.74 436.87 L 241.46 436.87 L 241.46 435.19 L 242.97 435.19 L 242.97 436.87 L 243.68 436.87 L 243.68 435.19 L 245.21 435.19 L 245.21 436.87 L 245.93 436.87 L 245.93 435.19 L 248.07 435.19 L 248.07 433.14 L 249.76 433.14 L 249.76 432.43 L 248.08 432.43 L 248.08 430.9 L 249.76 430.9 L 249.76 430.19 L 248.08 430.19 L 248.08 428.66 L 249.76 428.66 L 249.76 427.94 L 248.08 427.94 L 248.08 426.41 L 249.76 426.41 L 249.76 425.7 L 248.08 425.7 L 248.08 424.17 Z M 247.36 434.48 L 235.01 434.48 L 235.01 422.12 L 247.36 422.12 Z" fill="#d86613" style="fill: light-dark(rgb(216, 102, 19), rgb(216, 118, 46));" stroke="none" pointer-events="all"/></g><g><g><switch><foreignObject style="overflow: visible; text-align: left;" pointer-events="none" width="100%" height="100%" requiredFeatures="http://www.w3.org/TR/SVG11/feature#Extensibility"><div xmlns="http://www.w3.org/1999/xhtml" style="display: flex; align-items: unsafe flex-start; justify-content: unsafe flex-start; width: 259px; height: 1px; padding-top: 423px; margin-left: 261px;"><div style="box-sizing: border-box; font-size: 0; text-align: left; color: #D86613; "><div style="display: inline-block; font-size: 12px; font-family: Helvetica; color: light-dark(#D86613, #d8762e); line-height: 1.2; pointer-events: all; white-space: normal; word-wrap: normal; ">ECS Cluster</div></div></div></foreignObject><text x="261" y="435" fill="#D86613" font-family="Helvetica" font-size="12px">ECS Cluster</text></switch></g></g><g data-cell-id="gB1tynr3NcUta5bx9gjy-45"><g transform="translate(0.5,0.5)"><path d="M 228.68 415.8 L 249.47 415.8 L 249.47 436.59 L 228.68 436.59 Z" fill="#ed7100" style="fill: light-dark(rgb(237, 113, 0), rgb(216, 109, 12));" stroke="none" pointer-events="all"/><path d="M 245.93 428.46 L 243.6 427.06 L 243.6 423.72 C 243.6 423.62 243.54 423.52 243.45 423.47 L 240.1 421.52 L 240.1 418.69 L 245.93 422.14 Z M 246.37 421.72 L 239.96 417.93 C 239.87 417.88 239.75 417.88 239.66 417.93 C 239.57 417.98 239.52 418.08 239.52 418.18 L 239.52 421.68 C 239.52 421.79 239.57 421.88 239.66 421.93 L 243.01 423.89 L 243.01 427.22 C 243.01 427.32 243.07 427.42 243.16 427.47 L 246.07 429.22 C 246.12 429.25 246.17 429.26 246.22 429.26 C 246.27 429.26 246.32 429.25 246.37 429.22 C 246.46 429.17 246.51 429.08 246.51 428.97 L 246.51 421.97 C 246.51 421.87 246.46 421.78 246.37 421.72 Z M 239.06 433.89 L 232.23 430.25 L 232.23 422.14 L 238.06 418.69 L 238.06 421.52 L 234.99 423.48 C 234.9 423.53 234.85 423.62 234.85 423.72 L 234.85 428.68 C 234.85 428.79 234.91 428.89 235.01 428.94 L 238.93 430.98 C 239.01 431.02 239.12 431.02 239.2 430.98 L 243 429.01 L 245.35 430.42 Z M 246.08 430.18 L 243.16 428.43 C 243.08 428.38 242.97 428.37 242.88 428.42 L 239.07 430.39 L 235.43 428.5 L 235.43 423.88 L 238.51 421.93 C 238.59 421.87 238.64 421.78 238.64 421.68 L 238.64 418.18 C 238.64 418.08 238.59 417.98 238.49 417.93 C 238.4 417.88 238.29 417.88 238.2 417.93 L 231.79 421.72 C 231.7 421.78 231.64 421.87 231.64 421.97 L 231.64 430.43 C 231.64 430.54 231.7 430.64 231.8 430.69 L 238.93 434.48 C 238.97 434.5 239.02 434.51 239.07 434.51 C 239.11 434.51 239.16 434.5 239.21 434.47 L 246.07 430.68 C 246.16 430.63 246.22 430.54 246.22 430.43 C 246.22 430.33 246.17 430.23 246.08 430.18 Z" fill="#ffffff" style="fill: light-dark(rgb(255, 255, 255), rgb(18, 18, 18));" stroke="none" pointer-events="all"/></g></g><g data-cell-id="gB1tynr3NcUta5bx9gjy-10"><g transform="translate(0.5,0.5)"><path d="M 268.03 449.07 L 305.77 449.07 L 305.77 486.82 L 268.03 486.82 Z" fill="#ed7100" style="fill: light-dark(rgb(237, 113, 0), rgb(216, 109, 12));" stroke="none" pointer-events="all"/><path d="M 294 477.43 L 294 474.57 L 295.78 473.86 L 295.78 476.72 Z M 291.04 473.86 L 292.82 474.57 L 292.82 477.43 L 291.04 476.72 Z M 287.49 481.58 L 287.49 478.71 L 289.27 478 L 289.27 480.87 Z M 284.53 478 L 286.31 478.71 L 286.31 481.58 L 284.53 480.87 Z M 280.98 477.43 L 280.98 474.57 L 282.76 473.86 L 282.76 476.72 Z M 278.02 473.86 L 279.8 474.57 L 279.8 477.43 L 278.02 476.72 Z M 280.39 472.44 L 281.75 472.98 L 280.39 473.53 L 279.02 472.98 Z M 286.9 476.58 L 288.26 477.12 L 286.9 477.67 L 285.53 477.12 Z M 293.41 472.44 L 294.77 472.98 L 293.41 473.53 L 292.04 472.98 Z M 296.59 472.43 L 293.63 471.25 C 293.49 471.19 293.33 471.19 293.19 471.25 L 290.23 472.43 C 290.01 472.52 289.86 472.74 289.86 472.98 L 289.86 476.49 L 287.12 475.39 C 286.98 475.34 286.82 475.34 286.68 475.39 L 283.94 476.49 L 283.94 472.98 C 283.94 472.74 283.79 472.52 283.57 472.43 L 280.61 471.25 C 280.47 471.19 280.31 471.19 280.17 471.25 L 277.21 472.43 C 276.99 472.52 276.84 472.74 276.84 472.98 L 276.84 477.12 C 276.84 477.37 276.99 477.58 277.21 477.67 L 280.17 478.86 C 280.24 478.89 280.31 478.9 280.39 478.9 C 280.46 478.9 280.54 478.89 280.61 478.86 L 283.35 477.76 L 283.35 481.27 C 283.35 481.51 283.5 481.73 283.72 481.82 L 286.68 483 C 286.75 483.03 286.82 483.04 286.9 483.04 C 286.97 483.04 287.05 483.03 287.12 483 L 290.08 481.82 C 290.3 481.73 290.45 481.51 290.45 481.27 L 290.45 477.76 L 293.19 478.86 C 293.26 478.89 293.33 478.9 293.41 478.9 C 293.48 478.9 293.56 478.89 293.63 478.86 L 296.59 477.67 C 296.81 477.58 296.96 477.37 296.96 477.12 L 296.96 472.98 C 296.96 472.74 296.81 472.52 296.59 472.43 Z M 301.69 465.25 C 301.69 468.71 294.07 470.58 286.9 470.58 C 279.73 470.58 272.1 468.71 272.1 465.25 C 272.1 463.6 273.93 462.15 277.26 461.16 L 277.6 462.29 C 274.94 463.08 273.29 464.22 273.29 465.25 C 273.29 467.21 278.88 469.39 286.9 469.39 C 294.92 469.39 300.51 467.21 300.51 465.25 C 300.51 464.22 298.86 463.08 296.2 462.29 L 296.54 461.16 C 299.86 462.15 301.69 463.6 301.69 465.25 Z M 286.9 454.09 L 292.94 456.41 L 286.9 458.74 L 280.85 456.41 Z M 293.16 465.79 C 292.04 466.29 290.17 466.87 287.49 466.95 L 287.49 459.78 L 294 457.27 L 294 464.49 C 294 465.05 293.67 465.56 293.16 465.79 Z M 279.8 464.49 L 279.8 457.27 L 286.31 459.78 L 286.31 466.95 C 283.63 466.87 281.75 466.29 280.63 465.79 C 280.13 465.56 279.8 465.05 279.8 464.49 Z M 280.15 466.87 C 281.46 467.45 283.68 468.15 286.9 468.15 C 290.11 468.15 292.34 467.45 293.64 466.87 C 294.58 466.45 295.18 465.52 295.18 464.49 L 295.18 456.41 C 295.18 456.17 295.03 455.95 294.81 455.86 L 287.11 452.9 C 286.97 452.85 286.82 452.85 286.69 452.9 L 278.99 455.86 C 278.76 455.95 278.61 456.17 278.61 456.41 L 278.61 464.49 C 278.61 465.52 279.22 466.45 280.15 466.87 Z" fill="#ffffff" style="fill: light-dark(rgb(255, 255, 255), rgb(18, 18, 18));" stroke="none" pointer-events="all"/></g><g><g><switch><foreignObject style="overflow: visible; text-align: left;" pointer-events="none" width="100%" height="100%" requiredFeatures="http://www.w3.org/TR/SVG11/feature#Extensibility"><div xmlns="http://www.w3.org/1999/xhtml" style="display: flex; align-items: unsafe flex-start; justify-content: unsafe center; width: 1px; height: 1px; padding-top: 494px; margin-left: 287px;"><div style="box-sizing: border-box; font-size: 0; text-align: center; color: #232F3E; "><div style="display: inline-block; font-size: 12px; font-family: Helvetica; color: light-dark(#232F3E, #bdc7d4); line-height: 1.2; pointer-events: all; white-space: nowrap; ">Fargate<br />Task</div></div></div></foreignObject><text x="287" y="506" fill="#232F3E" font-family="Helvetica" font-size="12px" text-anchor="middle">Fargat...</text></switch></g></g></g></g></g><g data-cell-id="gB1tynr3NcUta5bx9gjy-7"><g transform="translate(0.5,0.5)"><path d="M 644.47 142.8 L 694.37 142.8 L 694.37 192.69 L 644.47 192.69 Z" fill="#ed7100" style="fill: light-dark(rgb(237, 113, 0), rgb(216, 109, 12));" stroke="none" pointer-events="all"/><path d="M 668.22 165.73 C 667.88 165.93 667.66 166.3 667.66 166.71 L 667.66 186.11 L 652.98 177.9 L 652.98 158.83 L 669.46 149.28 L 684.1 156.53 Z M 685.8 156.51 C 685.8 156.11 685.59 155.74 685.2 155.52 L 670.01 147.99 C 669.67 147.79 669.24 147.79 668.89 147.99 L 652.15 157.69 C 651.8 157.89 651.59 158.27 651.59 158.67 L 651.59 178.06 C 651.59 178.47 651.8 178.84 652.16 179.05 L 667.37 187.56 C 667.55 187.66 667.74 187.71 667.94 187.71 C 668.13 187.71 668.33 187.66 668.5 187.56 C 668.85 187.35 669.06 186.98 669.06 186.58 L 669.06 166.86 L 685.24 157.49 C 685.59 157.29 685.8 156.92 685.8 156.51 Z M 685.84 177.95 L 672.56 186.07 L 672.56 178.8 L 679.48 174.33 L 679.53 174.01 C 679.54 173.93 679.54 173.93 679.54 173.55 L 679.57 164.88 L 685.86 161.23 Z M 686.69 159.78 C 686.35 159.58 685.92 159.58 685.57 159.78 L 678.87 163.66 C 678.66 163.77 678.17 164.04 678.17 164.6 L 678.15 173.52 L 671.76 177.64 C 671.38 177.87 671.16 178.23 671.16 178.61 L 671.16 186.52 C 671.16 186.92 671.37 187.28 671.73 187.49 C 671.91 187.59 672.12 187.65 672.33 187.65 C 672.53 187.65 672.74 187.6 672.92 187.49 L 686.67 179.08 C 687.02 178.88 687.23 178.5 687.23 178.1 L 687.26 160.76 C 687.26 160.35 687.04 159.98 686.69 159.78 Z" fill="#ffffff" style="fill: light-dark(rgb(255, 255, 255), rgb(18, 18, 18));" stroke="none" pointer-events="all"/></g><g><g><switch><foreignObject style="overflow: visible; text-align: left;" pointer-events="none" width="100%" height="100%" requiredFeatures="http://www.w3.org/TR/SVG11/feature#Extensibility"><div xmlns="http://www.w3.org/1999/xhtml" style="display: flex; align-items: unsafe flex-start; justify-content: unsafe center; width: 1px; height: 1px; padding-top: 200px; margin-left: 669px;"><div style="box-sizing: border-box; font-size: 0; text-align: center; color: #232F3E; "><div style="display: inline-block; font-size: 12px; font-family: Helvetica; color: light-dark(#232F3E, #bdc7d4); line-height: 1.2; pointer-events: all; white-space: nowrap; ">ECR</div></div></div></foreignObject><text x="669" y="212" fill="#232F3E" font-family="Helvetica" font-size="12px" text-anchor="middle">ECR</text></switch></g></g></g><g data-cell-id="gB1tynr3NcUta5bx9gjy-8"><g transform="translate(0.5,0.5)"><path d="M 644.47 268.8 L 694.37 268.8 L 694.37 318.69 L 644.47 318.69 Z" fill="#dd344c" style="fill: light-dark(rgb(221, 52, 76), rgb(255, 127, 147));" stroke="none" pointer-events="all"/><path d="M 668.54 296.14 C 668.54 296.63 668.93 297.03 669.42 297.03 C 669.91 297.03 670.3 296.63 670.3 296.14 C 670.3 295.65 669.91 295.26 669.42 295.26 C 668.93 295.26 668.54 295.65 668.54 296.14 Z M 667.11 296.14 C 667.11 294.87 668.15 293.83 669.42 293.83 C 670.69 293.83 671.73 294.87 671.73 296.14 C 671.73 297.17 671.06 298.03 670.13 298.33 L 670.13 300.16 L 668.71 300.16 L 668.71 298.33 C 667.78 298.03 667.11 297.17 667.11 296.14 Z M 675.84 292.32 L 663.01 292.32 L 663.01 301.59 L 675.84 301.59 L 675.84 299.45 L 673.7 299.45 L 673.7 298.02 L 675.84 298.02 L 675.84 295.89 L 673.7 295.89 L 673.7 294.46 L 675.84 294.46 Z M 665.14 290.9 L 673.7 290.9 L 673.7 287.33 C 673.7 285.47 671.66 283.77 669.42 283.77 L 669.42 283.77 C 668.33 283.77 667.23 284.18 666.4 284.89 C 665.6 285.58 665.14 286.47 665.14 287.33 Z M 675.12 287.33 L 675.12 290.9 L 676.55 290.9 C 676.94 290.9 677.26 291.22 677.26 291.61 L 677.26 302.3 C 677.26 302.69 676.94 303.01 676.55 303.01 L 662.29 303.01 C 661.9 303.01 661.58 302.69 661.58 302.3 L 661.58 291.61 C 661.58 291.22 661.9 290.9 662.29 290.9 L 663.72 290.9 L 663.72 287.33 C 663.72 286.05 664.36 284.77 665.47 283.81 C 666.56 282.88 668 282.34 669.42 282.34 L 669.42 282.34 C 672.46 282.34 675.12 284.68 675.12 287.33 Z M 654.6 304.47 L 655.76 303.64 C 653.81 300.94 652.73 297.78 652.6 294.46 L 654.45 294.46 L 654.45 293.03 L 652.6 293.03 C 652.74 289.73 653.82 286.59 655.76 283.91 L 654.6 283.07 C 652.48 286 651.32 289.43 651.17 293.03 L 649.46 293.03 L 649.46 294.46 L 651.17 294.46 C 651.3 298.09 652.47 301.54 654.6 304.47 Z M 679.28 307.44 C 676.6 309.38 673.45 310.46 670.13 310.6 L 670.13 308.72 L 668.71 308.72 L 668.71 310.6 C 665.4 310.46 662.24 309.38 659.56 307.44 L 658.72 308.59 C 661.65 310.72 665.09 311.88 668.71 312.02 L 668.71 313.71 L 670.13 313.71 L 670.13 312.02 C 673.75 311.88 677.19 310.72 680.12 308.59 Z M 659.56 280.11 C 662.24 278.16 665.4 277.09 668.71 276.95 L 668.71 278.78 L 670.13 278.78 L 670.13 276.95 C 673.45 277.09 676.6 278.16 679.28 280.11 L 680.12 278.95 C 677.19 276.83 673.75 275.66 670.13 275.53 L 670.13 273.79 L 668.71 273.79 L 668.71 275.53 C 665.09 275.66 661.65 276.83 658.72 278.95 Z M 687.67 293.03 C 687.53 289.43 686.36 286 684.24 283.07 L 683.08 283.91 C 685.02 286.59 686.1 289.73 686.24 293.03 L 684.39 293.03 L 684.39 294.46 L 686.24 294.46 C 686.11 297.78 685.03 300.94 683.08 303.64 L 684.24 304.47 C 686.37 301.54 687.54 298.09 687.67 294.46 L 689.38 294.46 L 689.38 293.03 Z M 681.1 283.1 L 686.69 277.51 L 685.68 276.51 L 680.09 282.09 Z M 657.74 304.45 L 652.15 310.03 L 653.16 311.04 L 658.75 305.45 Z M 661.34 284.66 L 650.76 274.08 L 649.76 275.09 L 660.33 285.67 Z M 679.54 302.86 L 689.08 312.4 L 688.08 313.41 L 678.53 303.86 Z" fill="#ffffff" style="fill: light-dark(rgb(255, 255, 255), rgb(18, 18, 18));" stroke="none" pointer-events="all"/></g><g><g><switch><foreignObject style="overflow: visible; text-align: left;" pointer-events="none" width="100%" height="100%" requiredFeatures="http://www.w3.org/TR/SVG11/feature#Extensibility"><div xmlns="http://www.w3.org/1999/xhtml" style="display: flex; align-items: unsafe flex-start; justify-content: unsafe center; width: 1px; height: 1px; padding-top: 326px; margin-left: 669px;"><div style="box-sizing: border-box; font-size: 0; text-align: center; color: #232F3E; "><div style="display: inline-block; font-size: 12px; font-family: Helvetica; color: light-dark(#232F3E, #bdc7d4); line-height: 1.2; pointer-events: all; white-space: nowrap; ">Secrets<br />Manager</div></div></div></foreignObject><text x="669" y="338" fill="#232F3E" font-family="Helvetica" font-size="12px" text-anchor="middle">Secrets...</text></switch></g></g></g><g data-cell-id="gB1tynr3NcUta5bx9gjy-9"><g transform="translate(0.5,0.5)"><rect x="644.47" y="411.6" width="49.89" height="37.1" fill="none" stroke="none" pointer-events="all"/><path d="M 675.28 421.75 C 671.63 421.75 668.53 424.09 667.37 427.35 L 669.8 427.35 C 670.82 425.36 672.89 423.99 675.28 423.99 C 678.68 423.99 681.44 426.75 681.44 430.15 C 681.44 433.55 678.68 436.31 675.28 436.31 C 673.37 436.31 671.66 435.44 670.53 434.07 L 667.86 434.07 C 669.27 436.73 672.06 438.55 675.28 438.55 C 679.91 438.55 683.68 434.78 683.68 430.15 C 683.68 425.51 679.91 421.75 675.28 421.75 Z M 644.47 439.67 L 659.04 439.67 L 659.04 437.43 L 644.47 437.43 Z M 644.47 422.87 L 659.04 422.87 L 659.04 420.63 L 644.47 420.63 Z M 644.47 431.83 L 674.72 431.83 L 674.72 429.59 L 644.47 429.59 Z M 691.35 442.74 L 685.72 437.67 C 685.25 438.32 684.73 438.92 684.15 439.47 L 689.75 444.52 C 690.23 444.96 691 444.92 691.44 444.43 C 691.88 443.94 691.84 443.18 691.35 442.74 Z M 693.1 445.93 C 692.42 446.68 691.49 447.06 690.54 447.06 C 689.73 447.06 688.9 446.77 688.25 446.19 L 682.38 440.89 C 680.34 442.24 677.9 443.03 675.28 443.03 C 669.55 443.03 664.68 439.26 663.01 434.07 L 665.4 434.07 C 666.96 438 670.8 440.79 675.28 440.79 C 681.15 440.79 685.92 436.02 685.92 430.15 C 685.92 424.28 681.15 419.51 675.28 419.51 C 670.38 419.51 666.26 422.84 665.03 427.35 L 662.71 427.35 C 664 421.59 669.14 417.27 675.28 417.27 C 682.38 417.27 688.16 423.04 688.16 430.15 C 688.16 432.14 687.7 434.02 686.89 435.7 L 692.85 441.08 C 694.26 442.35 694.37 444.52 693.1 445.93 Z M 644.47 448.63 L 665.76 448.63 L 665.76 446.39 L 644.47 446.39 Z M 644.47 413.9 L 668 413.9 L 668 411.66 L 644.47 411.66 Z" fill="#e7157b" style="fill: light-dark(rgb(231, 21, 123), rgb(255, 129, 217));" stroke="none" pointer-events="all"/></g><g><g><switch><foreignObject style="overflow: visible; text-align: left;" pointer-events="none" width="100%" height="100%" requiredFeatures="http://www.w3.org/TR/SVG11/feature#Extensibility"><div xmlns="http://www.w3.org/1999/xhtml" style="display: flex; align-items: unsafe flex-start; justify-content: unsafe center; width: 1px; height: 1px; padding-top: 456px; margin-left: 669px;"><div style="box-sizing: border-box; font-size: 0; text-align: center; color: #232F3E; "><div style="display: inline-block; font-size: 12px; font-family: Helvetica; color: light-dark(#232F3E, #bdc7d4); line-height: 1.2; pointer-events: all; white-space: nowrap; ">CloudWatch<br />Logs</div></div></div></foreignObject><text x="669" y="468" fill="#232F3E" font-family="Helvetica" font-size="12px" text-anchor="middle">CloudWat...</text></switch></g></g></g><g data-cell-id="gB1tynr3NcUta5bx9gjy-21"><g transform="translate(0.5,0.5)"><rect x="602.89" y="100.8" width="133.05" height="453.6" fill="none" stroke="#d79b00" style="stroke: light-dark(rgb(215, 155, 0), rgb(153, 101, 0));" stroke-width="2" stroke-dasharray="2 8" pointer-events="all"/></g><g><g><switch><foreignObject style="overflow: visible; text-align: left;" pointer-events="none" width="100%" height="100%" requiredFeatures="http://www.w3.org/TR/SVG11/feature#Extensibility"><div xmlns="http://www.w3.org/1999/xhtml" style="display: flex; align-items: unsafe flex-start; justify-content: unsafe center; width: 131px; height: 1px; padding-top: 108px; margin-left: 604px;"><div style="box-sizing: border-box; font-size: 0; text-align: center; color: #000000; "><div style="display: inline-block; font-size: 12px; font-family: Helvetica; color: light-dark(#000000, #ffffff); line-height: 1.2; pointer-events: all; white-space: normal; word-wrap: normal; "><b><span style="color: light-dark(rgb(255, 181, 112), rgb(126, 63, 3));">AWS managed</span></b></div></div></div></foreignObject><text x="669" y="120" fill="light-dark(#000000, #ffffff)" font-family="Helvetica" font-size="12px" text-anchor="middle">AWS managed</text></switch></g></g></g></g></g></g><g data-cell-id="gB1tynr3NcUta5bx9gjy-13"><g transform="translate(0.5,0.5)"><rect x="0" y="151.2" width="83.16" height="42" rx="6.3" ry="6.3" fill="#ffffff" style="fill: var(--ge-adaptive-bg, #ffffff); stroke: light-dark(rgb(0, 0, 0), rgb(255, 255, 255));" stroke="#000000" pointer-events="all"/></g><g><g><switch><foreignObject style="overflow: visible; text-align: left;" pointer-events="none" width="100%" height="100%" requiredFeatures="http://www.w3.org/TR/SVG11/feature#Extensibility"><div xmlns="http://www.w3.org/1999/xhtml" style="display: flex; align-items: unsafe center; justify-content: unsafe center; width: 81px; height: 1px; padding-top: 172px; margin-left: 1px;"><div style="box-sizing: border-box; font-size: 0; text-align: center; color: #000000; "><div style="display: inline-block; font-size: 12px; font-family: Helvetica; color: light-dark(#000000, #ffffff); line-height: 1.2; pointer-events: all; white-space: normal; word-wrap: normal; ">Internet<br /><font style="font-size: 10px; color: light-dark(rgb(153, 153, 153), rgb(106, 106, 106));">HTTPS</font></div></div></div></foreignObject><text x="42" y="176" fill="light-dark(#000000, #ffffff)" font-family="Helvetica" font-size="12px" text-anchor="middle">Internet...</text></switch></g></g></g></g></g></g></g><switch><g requiredFeatures="http://www.w3.org/TR/SVG11/feature#Extensibility"/><a transform="translate(0,-5)" xlink:href="https://www.drawio.com/doc/faq/svg-export-text-problems" target="_blank"><text text-anchor="middle" font-size="10px" x="50%" y="100%">Text is not SVG - cannot display</text></a></switch></svg>